<svg width="256" height="256" viewBox="0 0 256 256" fill="none" xmlns="http://www.w3.org/2000/svg">
<path d="M126.45 139.149C104.869 139.149 87.2112 121.491 87.2112 99.91V85.8375C87.2112 64.2567 104.869 46.5986 126.45 46.5986C148.031 46.5986 165.689 64.2567 165.689 85.8375V99.91C165.689 121.494 148.031 139.149 126.45 139.149Z" fill="#E4C1F9"/>
<path d="M148.545 144.541C141.908 147.978 134.405 149.956 126.45 149.956C118.495 149.956 110.992 147.978 104.355 144.541C74.6897 148.97 51.7433 174.712 51.7433 205.557V246.145C51.7433 249.86 54.7837 252.897 58.4957 252.897H194.399C198.113 252.897 201.151 249.857 201.151 246.145V205.557C201.157 174.712 178.21 148.97 148.545 144.541Z" fill="#E4C1F9"/>
<path d="M200.288 97.9395C193.651 101.376 186.148 103.354 178.193 103.354C178.182 103.354 178.174 103.354 178.162 103.354C177.336 115.752 172.166 126.961 164.126 135.473C193.224 145.816 213.802 173.826 213.802 205.557V206.296H246.148C249.862 206.296 252.903 203.255 252.903 199.541V158.956C252.9 128.108 229.954 102.365 200.288 97.9395Z" fill="#EED9FA"/>
<path d="M178.193 0C157.843 0 140.997 15.7051 139.14 35.5943C161.62 41.2789 178.331 61.6177 178.331 85.8399V92.5417C199.847 92.4659 217.429 74.8443 217.429 53.3113V39.2388C217.432 17.658 199.774 0 178.193 0Z" fill="#EED9FA"/>
<path d="M39.1012 205.557C39.1012 173.826 59.676 145.813 88.7735 135.473C80.7341 126.961 75.5609 115.749 74.7376 103.354C74.7263 103.354 74.7179 103.354 74.7067 103.354C66.7515 103.354 59.2517 101.376 52.6116 97.9395C22.9465 102.365 0 128.108 0 158.956V199.543C0 203.258 3.04042 206.299 6.75524 206.299H39.1012V205.557Z" fill="#EED9FA"/>
<path d="M74.5661 92.5389V85.8371C74.5661 61.6149 91.2744 41.2761 113.757 35.5915C111.903 15.7051 95.0566 0 74.7066 0C53.1258 0 35.4678 17.658 35.4678 39.2388V53.3113C35.4678 74.8443 53.0499 92.463 74.5661 92.5389Z" fill="#EED9FA"/>
</svg>
