<?xml version="1.0" encoding="utf-8"?>
<!-- Generator: Adobe Illustrator 16.0.0, SVG Export Plug-In . SVG Version: 6.00 Build 0)  -->
<!DOCTYPE svg PUBLIC "-//W3C//DTD SVG 1.1//EN" "http://www.w3.org/Graphics/SVG/1.1/DTD/svg11.dtd">
<svg version="1.1" id="Cow_1_" xmlns="http://www.w3.org/2000/svg" xmlns:xlink="http://www.w3.org/1999/xlink" x="0px" y="0px"
	 width="512px" height="512px" viewBox="0 0 512 512" enable-background="new 0 0 512 512" xml:space="preserve">
<circle id="Background_5_" fill="#1BA555" cx="256" cy="256" r="256"/>
<path id="Shadow" opacity="0.1" d="M512,256c0-3.6-0.094-7.178-0.24-10.742l-53.047-53.046H220.756v317.362
	C232.279,511.161,244.041,512,256,512C397.386,512,512,397.386,512,256z"/>
<g id="Cow">
	<path fill="#EFF0F0" d="M170.653,190.686c0,0-24.522-31.322-43.987-31.322c-14.196,0-75.581,0-107.779,0
		C6.722,189.184,0,221.805,0,256c0,130.469,97.601,238.137,223.771,253.986l52.131-52.132L170.653,190.686z"/>
	<polygon opacity="0.1" points="83.892,229.615 209.668,355.392 209.668,229.615 	"/>
	<path opacity="0.8" d="M131.32,399.565H44.021c37.447,55.185,95.88,94.96,163.83,107.894c2.939-8.394,4.556-17.408,4.556-26.805
		C212.408,435.87,176.104,399.565,131.32,399.565z"/>
	<path opacity="0.1" d="M258.533,413.766l-84.747,84.746c16.009,5.426,32.73,9.307,49.984,11.475l52.131-52.132L258.533,413.766z"/>
	<path fill="#EFF0F0" d="M402.228,167.786c-19.847,0-31.679,17.938-31.679,17.938l-52.287-27.098l-17.938-17.938
		c0,0-10.114-7.251-40.075-7.251c-29.96,0-40.074,7.251-40.074,7.251l-17.938,17.938l-52.288,27.098
		c0,0-11.832-17.938-31.678-17.938c-49.616,0-56.486,24.426-56.486,24.426c0,17.557,32.06,52.192,51.143,58.299
		c9.461,3.027,23.613-3.096,35.479-3.721l17.048,3.578c0,0,6.727,76.952,9.303,92.982c2.543,15.826,24.808,60.685,35.113,93.126
		c10.305,32.441,50.379,28.243,50.379,28.243s40.075,4.198,50.38-28.243s32.569-77.3,35.113-93.126
		c2.576-16.03,9.303-92.982,9.303-92.982l17.048-3.578c11.865,0.625,26.018,6.749,35.479,3.721
		c19.083-6.107,51.143-40.743,51.143-58.299C458.713,192.212,451.844,167.786,402.228,167.786z"/>
	<path opacity="0.8" d="M402.228,167.786c-19.847,0-31.679,17.938-31.679,17.938l-51.891-26.892l0,0
		C302.098,210.548,269.6,323.735,269.6,341.824c0,10.877,11.236,27.121,13.311,30.771c2.073,3.65,13.191,5.415,15.887,9.017
		c2.695,3.603,3.721,11.164,3.721,11.164h-42.269h-0.001h-42.269c0,0,1.026-7.562,3.721-11.164
		c2.695-3.602,13.813-5.366,15.887-9.017c2.074-3.65,13.31-19.895,13.31-30.771c0-18.089-32.499-131.277-49.059-182.993l0,0
		l-51.891,26.892c0,0-11.832-17.938-31.678-17.938c-49.616,0-56.486,24.426-56.486,24.426c0,17.557,32.06,52.192,51.143,58.299
		c9.461,3.027,23.613-3.096,35.479-3.721l17.048,3.578c0,0,6.727,76.952,9.303,92.982c2.543,15.826,24.808,60.685,35.113,93.126
		c10.305,32.441,50.379,28.243,50.379,28.243s40.075,4.198,50.38-28.243s32.569-77.3,35.113-93.126
		c2.576-16.03,9.303-92.982,9.303-92.982l17.048-3.578c11.865,0.625,26.018,6.749,35.479,3.721
		c19.083-6.107,51.143-40.743,51.143-58.299C458.713,192.212,451.844,167.786,402.228,167.786z"/>
	<g>
		<circle fill="#231F20" cx="181.531" cy="261.675" r="10.877"/>
		<circle fill="#231F20" cx="338.966" cy="261.675" r="10.877"/>
	</g>
	<path fill="#EBAC7C" d="M220.757,388.196c0,0,11.439-8.73,39.491-8.73c28.053,0,39.492,8.73,39.492,8.73
		s0.583,60.827-39.492,60.827C220.174,449.023,220.757,388.196,220.757,388.196z"/>
	<g opacity="0.1">
		<g>
			<g>
				<path d="M299.74,388.196c0,0-11.439-8.73-39.492-8.73v69.558C300.323,449.023,299.74,388.196,299.74,388.196z"/>
			</g>
		</g>
	</g>
	<g>
		<path fill="#231F20" d="M220.757,388.196c5.725,0,2.481,9.923,5.725,13.167s13.358,8.588,13.358,16.984
			s-2.29,11.736-13.931,11.736C214.269,430.084,215.986,388.196,220.757,388.196z"/>
		<path fill="#231F20" d="M299.74,388.196c-5.726,0-2.481,9.923-5.726,13.167s-13.357,8.588-13.357,16.984
			s2.29,11.736,13.931,11.736S304.511,388.196,299.74,388.196z"/>
	</g>
	<g>
		<path opacity="0.3" fill="#FFFFFF" d="M127.683,212.44c-5.438-8.874-28.892-6.584-28.892-6.584l31.182,23.759
			C129.973,229.615,133.121,221.314,127.683,212.44z"/>
		<path opacity="0.3" fill="#FFFFFF" d="M392.814,212.44c5.438-8.874,28.892-6.584,28.892-6.584l-31.182,23.759
			C390.524,229.615,387.376,221.314,392.814,212.44z"/>
	</g>
	<path opacity="0.8" d="M65.203,322.73v-18.932c0-34.583-28.5-62.883-64.6-65.281C0.213,244.296,0,250.123,0,256
		c0,44.539,11.381,86.417,31.383,122.896C51.642,367.452,65.203,346.585,65.203,322.73z"/>
</g>
</svg>
