<svg width="51" height="90" viewBox="0 0 51 90" fill="none" xmlns="http://www.w3.org/2000/svg">
<path d="M26.3469 89.3961L50.8824 39.0322C51.2427 38.2932 50.7322 37.4142 49.9422 37.4142H49.4012C34.0855 32.3242 18.228 32.1002 1.75246 37.4142H1.05751C0.269382 37.4142 -0.241142 38.2902 0.116318 39.0292L24.4645 89.3921C24.8562 90.2011 25.9533 90.2031 26.3469 89.3961Z" fill="#FFDE55"/>
<path d="M5.02942 16.921C7.42802 14.398 10.4522 12.698 13.7739 12.006C14.1665 11.924 14.4793 11.614 14.5801 11.206C16.2086 4.608 21.8672 0 28.3423 0C36.1922 0 42.578 6.71799 42.578 14.974C42.578 16.332 42.3907 17.713 42.0228 19.077C41.9011 19.528 42.0656 20.011 42.4316 20.278C46.9322 23.553 49.6198 28.933 49.6198 34.67C49.6198 35.623 49.5466 36.575 49.4011 37.511H43.6513C43.3747 37.511 43.1104 37.627 42.9146 37.832C42.7187 38.037 42.6094 38.316 42.6094 38.607V43.5C42.6094 45.905 40.7489 47.861 38.4634 47.861C36.4917 47.861 34.8375 46.406 34.4192 44.463V38.608C34.4192 38.003 33.9533 37.512 33.3772 37.512H33.2764C32.7003 37.512 32.2345 38.003 32.2345 38.608V43.501C32.2345 43.905 32.2687 44.301 32.3362 44.684V52.358C32.3362 54.762 30.4757 56.719 28.1893 56.719C25.9038 56.719 24.0442 54.762 24.0442 52.358V38.608C24.0442 38.317 23.934 38.039 23.7391 37.833C23.5442 37.627 23.2789 37.512 23.0023 37.512H1.75238C-1.46477 30.602 -0.183234 22.405 5.02942 16.921Z" fill="#F75959"/>
<path d="M30.4747 11.166C31.7049 11.166 32.7022 10.117 32.7022 8.82298C32.7022 7.52898 31.7049 6.47998 30.4747 6.47998C29.2445 6.47998 28.2473 7.52898 28.2473 8.82298C28.2473 10.117 29.2445 11.166 30.4747 11.166Z" fill="#F9F9F9"/>
<path d="M34.5247 22.5261C35.7549 22.5261 36.7522 21.4771 36.7522 20.1831C36.7522 18.8891 35.7549 17.8401 34.5247 17.8401C33.2945 17.8401 32.2972 18.8891 32.2972 20.1831C32.2972 21.4771 33.2945 22.5261 34.5247 22.5261Z" fill="#F9F9F9"/>
<path d="M22.3748 18.2661C23.605 18.2661 24.6023 17.2171 24.6023 15.9231C24.6023 14.6291 23.605 13.5801 22.3748 13.5801C21.1446 13.5801 20.1473 14.6291 20.1473 15.9231C20.1473 17.2171 21.1446 18.2661 22.3748 18.2661Z" fill="#F9F9F9"/>
<path d="M11.5749 22.5261C12.8051 22.5261 13.8024 21.4771 13.8024 20.1831C13.8024 18.8891 12.8051 17.8401 11.5749 17.8401C10.3447 17.8401 9.34747 18.8891 9.34747 20.1831C9.34747 21.4771 10.3447 22.5261 11.5749 22.5261Z" fill="#F9F9F9"/>
<path d="M22.3748 31.0459C23.605 31.0459 24.6023 29.9969 24.6023 28.7029C24.6023 27.4089 23.605 26.3599 22.3748 26.3599C21.1446 26.3599 20.1473 27.4089 20.1473 28.7029C20.1473 29.9969 21.1446 31.0459 22.3748 31.0459Z" fill="#F9F9F9"/>
<path d="M39.9246 31.0459C41.1548 31.0459 42.1521 29.9969 42.1521 28.7029C42.1521 27.4089 41.1548 26.3599 39.9246 26.3599C38.6944 26.3599 37.6971 27.4089 37.6971 28.7029C37.6971 29.9969 38.6944 31.0459 39.9246 31.0459Z" fill="#F9F9F9"/>
<path d="M7.52496 32.466C8.75516 32.466 9.75244 31.417 9.75244 30.123C9.75244 28.829 8.75516 27.78 7.52496 27.78C6.29476 27.78 5.29749 28.829 5.29749 30.123C5.29749 31.417 6.29476 32.466 7.52496 32.466Z" fill="#F9F9F9"/>
</svg>
