<svg width="51" height="90" viewBox="0 0 51 90" fill="none" xmlns="http://www.w3.org/2000/svg">
<g clip-path="url(#clip0_344_289)">
<path d="M26.3469 89.3965L50.8824 39.0326C51.2427 38.2936 50.7322 37.4146 49.9422 37.4146H49.4012C34.0855 32.3246 18.228 32.1006 1.75246 37.4146H1.05751C0.269382 37.4146 -0.241142 38.2906 0.116318 39.0296L24.4645 89.3925C24.8562 90.2015 25.9533 90.2035 26.3469 89.3965Z" fill="#FFDE55"/>
<path d="M5.02942 16.921C7.42802 14.398 10.4522 12.698 13.7739 12.006C14.1665 11.924 14.4793 11.614 14.5801 11.206C16.2086 4.608 21.8672 0 28.3423 0C36.1922 0 42.578 6.71799 42.578 14.974C42.578 16.332 42.3907 17.713 42.0228 19.077C41.9011 19.528 42.0656 20.011 42.4316 20.278C46.9322 23.553 49.6198 28.933 49.6198 34.67C49.6198 35.623 49.5466 36.575 49.4011 37.511H43.6513C43.3747 37.511 43.1104 37.627 42.9146 37.832C42.7187 38.037 42.6094 38.316 42.6094 38.607V43.5C42.6094 45.905 40.7489 47.861 38.4634 47.861C36.4917 47.861 34.8375 46.406 34.4192 44.463V38.608C34.4192 38.003 33.9533 37.512 33.3772 37.512H33.2764C32.7003 37.512 32.2345 38.003 32.2345 38.608V43.501C32.2345 43.905 32.2687 44.301 32.3362 44.684V52.358C32.3362 54.762 30.4757 56.719 28.1893 56.719C25.9038 56.719 24.0442 54.762 24.0442 52.358V38.608C24.0442 38.317 23.934 38.039 23.7391 37.833C23.5442 37.627 23.2789 37.512 23.0023 37.512H1.75238C-1.46477 30.602 -0.183235 22.405 5.02942 16.921Z" fill="#E4C1F9"/>
<path d="M30.4747 11.1655C31.7049 11.1655 32.7022 10.1165 32.7022 8.82249C32.7022 7.52849 31.7049 6.47949 30.4747 6.47949C29.2445 6.47949 28.2473 7.52849 28.2473 8.82249C28.2473 10.1165 29.2445 11.1655 30.4747 11.1655Z" fill="#F9F9F9"/>
<path d="M34.5247 22.5258C35.7549 22.5258 36.7522 21.4768 36.7522 20.1828C36.7522 18.8888 35.7549 17.8398 34.5247 17.8398C33.2945 17.8398 32.2972 18.8888 32.2972 20.1828C32.2972 21.4768 33.2945 22.5258 34.5247 22.5258Z" fill="#F9F9F9"/>
<path d="M22.3748 18.2661C23.605 18.2661 24.6023 17.2171 24.6023 15.9231C24.6023 14.6291 23.605 13.5801 22.3748 13.5801C21.1446 13.5801 20.1473 14.6291 20.1473 15.9231C20.1473 17.2171 21.1446 18.2661 22.3748 18.2661Z" fill="#F9F9F9"/>
<path d="M11.5748 22.5258C12.805 22.5258 13.8023 21.4768 13.8023 20.1828C13.8023 18.8888 12.805 17.8398 11.5748 17.8398C10.3446 17.8398 9.34741 18.8888 9.34741 20.1828C9.34741 21.4768 10.3446 22.5258 11.5748 22.5258Z" fill="#F9F9F9"/>
<path d="M22.3748 31.0464C23.605 31.0464 24.6023 29.9974 24.6023 28.7034C24.6023 27.4094 23.605 26.3604 22.3748 26.3604C21.1446 26.3604 20.1473 27.4094 20.1473 28.7034C20.1473 29.9974 21.1446 31.0464 22.3748 31.0464Z" fill="#F9F9F9"/>
<path d="M39.9246 31.0464C41.1548 31.0464 42.1521 29.9974 42.1521 28.7034C42.1521 27.4094 41.1548 26.3604 39.9246 26.3604C38.6944 26.3604 37.6971 27.4094 37.6971 28.7034C37.6971 29.9974 38.6944 31.0464 39.9246 31.0464Z" fill="#F9F9F9"/>
<path d="M7.52496 32.4663C8.75516 32.4663 9.75244 31.4173 9.75244 30.1233C9.75244 28.8293 8.75516 27.7803 7.52496 27.7803C6.29476 27.7803 5.29749 28.8293 5.29749 30.1233C5.29749 31.4173 6.29476 32.4663 7.52496 32.4663Z" fill="#F9F9F9"/>
</g>
<defs>
<clipPath id="clip0_344_289">
<rect width="51" height="90" fill="white"/>
</clipPath>
</defs>
</svg>
