<svg width="256" height="256" viewBox="0 0 256 256" fill="none" xmlns="http://www.w3.org/2000/svg">
<path d="M95.7405 137.821L17.6197 92.7176C14.8687 91.13 15.411 87.0077 18.4796 86.1844L77.2311 70.4512C80.7042 69.5211 84.2757 71.5836 85.2086 75.0568L100.967 133.808C101.79 136.877 98.4915 139.409 95.7405 137.821Z" fill="#E4C1F9"/>
<path d="M47.1612 175.972L79.4256 120.084L41.1365 97.978L4.27777 161.824C0.647249 168.113 5.1854 175.972 12.4464 175.972H47.1612Z" fill="#E4C1F9"/>
<path d="M65.8449 194.3V224.693C65.8449 227.255 63.7683 229.332 61.2056 229.332H43.5981C34.2155 229.332 25.5467 224.316 20.8736 216.178L7.3744 192.675C4.5363 187.733 3.04138 182.132 3.04138 176.434C3.38139 180.871 6.87422 184.791 11.758 185.133H61.2056C63.7683 185.133 65.8449 187.21 65.8449 189.773V194.3Z" fill="#E4C1F9"/>
<path d="M143.522 107.018L221.643 61.9147C224.394 60.3271 227.692 62.8589 226.869 65.9274L211.116 124.673C210.186 128.146 206.615 130.209 203.139 129.279L144.382 113.551C141.313 112.731 140.768 108.608 143.522 107.018Z" fill="#E4C1F9"/>
<path d="M134.771 45.8721L167.039 101.757L205.328 79.6511L168.466 15.8079C164.836 9.51911 155.759 9.51911 152.129 15.8079L134.771 45.8721Z" fill="#E4C1F9"/>
<path d="M109.557 52.8888L83.236 37.6923C81.0161 36.411 80.2574 33.5729 81.5388 31.353L90.3425 16.1031C95.0352 7.97657 103.712 2.98039 113.095 3.00006L140.2 3.05907C145.899 3.07031 151.497 4.57647 156.431 7.42862C152.418 5.50377 147.279 6.56876 144.539 10.6292L119.814 53.4536C118.532 55.6735 115.694 56.4322 113.474 55.1508L109.557 52.8888Z" fill="#E4C1F9"/>
<path d="M146.72 162.122V252.326C146.72 255.504 142.878 257.095 140.633 254.847L97.6317 211.834C95.0886 209.291 95.0886 205.166 97.6317 202.623L140.633 159.602C142.878 157.354 146.72 158.944 146.72 162.122Z" fill="#E4C1F9"/>
<path d="M204.049 185.119H139.517V229.332L213.238 229.329C220.499 229.329 225.037 221.469 221.406 215.181L204.049 185.119Z" fill="#E4C1F9"/>
<path d="M210.579 159.773L236.901 144.576C239.121 143.295 241.959 144.057 243.24 146.274L252.044 161.523C256.736 169.65 256.725 179.665 252.016 187.78L238.412 211.224C235.552 216.153 231.449 220.247 226.515 223.096C230.188 220.584 231.834 215.599 229.69 211.199L204.965 168.374C203.684 166.154 204.445 163.316 206.662 162.035L210.579 159.773Z" fill="#E4C1F9"/>
</svg>
