<?xml version="1.0" encoding="utf-8"?><svg version="1.1" id="Layer_1" xmlns="http://www.w3.org/2000/svg" xmlns:xlink="http://www.w3.org/1999/xlink" x="0px" y="0px" viewBox="0 0 62.38 122.88" style="enable-background:new 0 0 62.38 122.88" xml:space="preserve"><style type="text/css">.st0{fill-rule:evenodd;clip-rule:evenodd;}</style><g><path class="st0" d="M4.97,30.77l0,53.54c0.01,0.07,0.05,0.13,0.11,0.18c0.07,0.07,0.15,0.11,0.25,0.11l48.89,0 c0.87,0,1.67-0.36,2.25-0.94c0.58-0.58,0.94-1.38,0.94-2.25V30.77c0-12.4-6.76-20.32-15.4-23.77c-3.39-1.35-7.1-2.03-10.81-2.03 c-3.71,0-7.41,0.68-10.82,2.04l-0.11,0.04C11.67,10.53,4.97,18.43,4.97,30.77L4.97,30.77z M52.39,29.44 c0.24,1.35-0.66,2.64-2.01,2.89c-1.35,0.24-2.64-0.66-2.89-2.01c-0.76-4.26-2.24-7.63-4.53-9.95c-2.24-2.27-5.37-3.63-9.5-3.94 c-1.37-0.11-2.39-1.3-2.28-2.67c0.11-1.37,1.3-2.39,2.67-2.28c5.38,0.4,9.54,2.26,12.64,5.39C49.53,19.97,51.45,24.21,52.39,29.44 L52.39,29.44z M23.16,89.58v26.36c0,9.26,16.06,9.26,16.06,0V89.58l14.99,0c2.25,0,4.29-0.92,5.77-2.4c1.48-1.48,2.4-3.52,2.4-5.77 V30.77c0-14.76-8.12-24.22-18.52-28.37C39.84,0.8,35.51,0,31.19,0c-4.33,0-8.66,0.8-12.66,2.4l-0.14,0.06 C8.05,6.64,0,16.08,0,30.77v53.48c0,0.09,0,0.17,0.01,0.26c0.07,1.37,0.65,2.6,1.55,3.5c0.96,0.96,2.3,1.56,3.76,1.56H23.16 L23.16,89.58z"/></g></svg>