<svg width="16" height="16" viewBox="0 0 16 16" fill="none" xmlns="http://www.w3.org/2000/svg">
<g clip-path="url(#clip0_332_35)">
<path fill-rule="evenodd" clip-rule="evenodd" d="M0.500047 6C0.425231 6.00003 0.351374 6.01685 0.283922 6.04922C0.21647 6.08159 0.157142 6.12868 0.110311 6.18703C0.0634796 6.24537 0.0303394 6.31349 0.0133328 6.38635C-0.0036737 6.4592 -0.00411294 6.53495 0.0120475 6.608L1.66405 14.042C1.78736 14.5972 2.09632 15.0939 2.53993 15.4498C2.98354 15.8058 3.53527 15.9999 4.10405 16H9.89605C10.4648 15.9999 11.0166 15.8058 11.4602 15.4498C11.9038 15.0939 12.2127 14.5972 12.336 14.042L12.467 13.452C13.232 13.5951 14.0226 13.4353 14.6719 13.0064C15.3213 12.5776 15.7785 11.9132 15.9473 11.1535C16.116 10.3938 15.9829 9.59831 15.5761 8.93492C15.1693 8.27152 14.5206 7.79215 13.767 7.598L13.988 6.608C14.0042 6.53495 14.0038 6.4592 13.9868 6.38635C13.9698 6.31349 13.9366 6.24537 13.8898 6.18703C13.843 6.12868 13.7836 6.08159 13.7162 6.04922C13.6487 6.01685 13.5749 6.00003 13.5 6H0.500047ZM13 12.5C12.8942 12.5 12.7886 12.4916 12.684 12.475L13.551 8.577C14.0135 8.71095 14.4122 9.00719 14.674 9.41135C14.9357 9.81551 15.0429 10.3005 14.9759 10.7773C14.909 11.2541 14.6723 11.6908 14.3094 12.0073C13.9464 12.3237 13.4816 12.4986 13 12.5Z" fill="#6969B3"/>
<path d="M4.4 0.800091L4.397 0.804091L4.383 0.823091C4.31043 0.923343 4.24236 1.02678 4.179 1.13309C4.12627 1.21894 4.07917 1.30813 4.038 1.40009C4.012 1.46009 4.004 1.49209 4.001 1.50309V1.50709C4.0123 1.59555 4.04341 1.68032 4.092 1.75509C4.167 1.88809 4.27 2.02709 4.4 2.20009L4.41 2.21209C4.528 2.37009 4.67 2.55909 4.78 2.75509C4.892 2.95509 5 3.21009 5 3.50009C5 3.68809 4.935 3.86809 4.881 3.99409C4.8223 4.12774 4.75481 4.25735 4.679 4.38209C4.60006 4.51292 4.51566 4.64036 4.426 4.76409L4.408 4.78909L4.403 4.79709L4.401 4.79909C4.32157 4.90531 4.20319 4.97562 4.07192 4.99457C3.94064 5.01351 3.80722 4.97952 3.701 4.90009C3.59478 4.82066 3.52447 4.70228 3.50553 4.57101C3.48658 4.43973 3.52057 4.30631 3.6 4.20009L3.603 4.19609L3.617 4.17709C3.68959 4.07685 3.75766 3.97342 3.821 3.86709C3.87447 3.78166 3.92159 3.69242 3.962 3.60009C3.988 3.54009 3.996 3.50809 3.999 3.49709C3.98859 3.40733 3.95781 3.32114 3.909 3.24509C3.81538 3.09046 3.71218 2.94184 3.6 2.80009L3.59 2.78809C3.45512 2.61523 3.33153 2.43386 3.22 2.24509C3.0838 2.01982 3.00802 1.76322 3 1.50009C3 1.31209 3.065 1.13209 3.119 1.00609C3.178 0.868091 3.253 0.732091 3.321 0.618091C3.39994 0.487265 3.48435 0.359819 3.574 0.236091L3.599 0.201091C3.67843 0.0948716 3.79681 0.0245573 3.92808 0.00561608C4.05936 -0.0133251 4.19278 0.0206585 4.299 0.100091C4.40522 0.179523 4.47553 0.297898 4.49447 0.429173C4.51342 0.560449 4.47943 0.693872 4.4 0.800091V0.800091ZM7.4 0.800091L7.397 0.804091L7.383 0.823091C7.31043 0.923343 7.24236 1.02678 7.179 1.13309C7.12627 1.21894 7.07917 1.30813 7.038 1.40009C7.012 1.46009 7.004 1.49209 7.001 1.50309V1.50709C7.0123 1.59555 7.04341 1.68032 7.092 1.75509C7.167 1.88809 7.27 2.02709 7.4 2.20009L7.41 2.21209C7.528 2.37009 7.67 2.55909 7.78 2.75509C7.892 2.95509 8 3.21009 8 3.50009C8 3.68809 7.935 3.86809 7.881 3.99409C7.8223 4.12774 7.75481 4.25735 7.679 4.38209C7.60006 4.51292 7.51566 4.64036 7.426 4.76409L7.408 4.78909L7.403 4.79709L7.401 4.79909C7.32157 4.90531 7.20319 4.97562 7.07192 4.99457C6.94064 5.01351 6.80722 4.97952 6.701 4.90009C6.59478 4.82066 6.52447 4.70228 6.50553 4.57101C6.48658 4.43973 6.52057 4.30631 6.6 4.20009L6.603 4.19609L6.617 4.17709C6.68959 4.07685 6.75766 3.97342 6.821 3.86709C6.87447 3.78166 6.92159 3.69242 6.962 3.60009C6.988 3.54009 6.996 3.50809 6.999 3.49709C6.98859 3.40733 6.95781 3.32114 6.909 3.24509C6.81538 3.09046 6.71218 2.94184 6.6 2.80009L6.59 2.78809C6.45512 2.61523 6.33153 2.43386 6.22 2.24509C6.0838 2.01982 6.00802 1.76322 6 1.50009C6 1.31209 6.065 1.13209 6.119 1.00609C6.178 0.868091 6.253 0.732091 6.321 0.618091C6.39994 0.487265 6.48435 0.359819 6.574 0.236091L6.599 0.201091C6.67843 0.0948716 6.79681 0.0245572 6.92808 0.00561608C7.05936 -0.0133251 7.19278 0.0206585 7.299 0.100091C7.40522 0.179523 7.47553 0.297898 7.49447 0.429173C7.51342 0.560449 7.47943 0.693872 7.4 0.800091V0.800091ZM10.4 0.800091L10.397 0.804091L10.383 0.823091C10.3103 0.923274 10.2423 1.02671 10.179 1.13309C10.1263 1.21896 10.0792 1.30814 10.038 1.40009C10.012 1.46009 10.004 1.49209 10.001 1.50309V1.50709C10.0123 1.59555 10.0434 1.68032 10.092 1.75509C10.167 1.88809 10.27 2.02709 10.4 2.20009L10.41 2.21209C10.528 2.37009 10.67 2.55909 10.78 2.75509C10.892 2.95509 11 3.21009 11 3.50009C11 3.68809 10.935 3.86809 10.881 3.99409C10.8226 4.12788 10.7551 4.25752 10.679 4.38209C10.6005 4.51294 10.5164 4.64039 10.427 4.76409L10.408 4.78909L10.403 4.79709L10.401 4.79909C10.3216 4.90531 10.2032 4.97562 10.0719 4.99457C9.94064 5.01351 9.80722 4.97952 9.701 4.90009C9.59478 4.82066 9.52447 4.70228 9.50553 4.57101C9.48658 4.43973 9.52057 4.30631 9.6 4.20009L9.603 4.19609L9.617 4.17709C9.68959 4.07685 9.75766 3.97342 9.821 3.86709C9.87447 3.78166 9.92159 3.69242 9.962 3.60009C9.988 3.54009 9.996 3.50809 9.999 3.49709C9.98859 3.40733 9.95781 3.32114 9.909 3.24509C9.81538 3.09046 9.71218 2.94184 9.6 2.80009L9.59 2.78809C9.45512 2.61523 9.33153 2.43386 9.22 2.24509C9.0838 2.01982 9.00802 1.76322 9 1.50009C9 1.31209 9.065 1.13209 9.119 1.00609C9.178 0.868091 9.253 0.732091 9.321 0.618091C9.39994 0.487265 9.48435 0.359819 9.574 0.236091L9.599 0.201091C9.67843 0.0948716 9.79681 0.0245572 9.92808 0.00561608C10.0594 -0.0133251 10.1928 0.0206585 10.299 0.100091C10.4052 0.179523 10.4755 0.297898 10.4945 0.429173C10.5134 0.560449 10.4794 0.693872 10.4 0.800091V0.800091Z" fill="#6969B3"/>
</g>
<defs>
<clipPath id="clip0_332_35">
<rect width="16" height="16" fill="white"/>
</clipPath>
</defs>
</svg>
