<svg width="700" height="700" viewBox="0 0 700 700" fill="none" xmlns="http://www.w3.org/2000/svg">
<g clip-path="url(#clip0_326_4)">
<g clip-path="url(#clip1_326_4)">
<g clip-path="url(#clip2_326_4)">
<g clip-path="url(#clip3_326_4)">
<g clip-path="url(#clip4_326_4)">
<g clip-path="url(#clip5_326_4)">
<g clip-path="url(#clip6_326_4)">
<g clip-path="url(#clip7_326_4)">
<g clip-path="url(#clip8_326_4)">
<g clip-path="url(#clip9_326_4)">
<path d="M349.998 429.899C347.425 429.899 344.852 428.914 342.887 426.952L271.828 355.89C252.245 336.297 252.245 304.412 271.828 284.812C281.316 275.326 293.926 270.102 307.351 270.102C320.777 270.102 333.399 275.331 342.895 284.823L349.998 291.915L357.099 284.814C366.589 275.328 379.197 270.104 392.622 270.104C406.049 270.104 418.67 275.333 428.168 284.825C447.761 304.424 447.751 336.31 428.168 355.892L357.107 426.952C355.142 428.914 352.571 429.899 349.998 429.899ZM307.351 290.217C299.297 290.217 291.735 293.349 286.05 299.036C274.302 310.786 274.302 329.913 286.05 341.671L349.998 405.617L413.946 341.671C425.692 329.923 425.692 310.8 413.946 299.045C402.554 287.66 382.692 287.66 371.322 299.036L357.117 313.248C353.188 317.177 346.824 317.17 342.895 313.252L328.674 299.051C322.978 293.353 315.405 290.217 307.351 290.217Z" fill="#EA3882"/>
<path d="M350.006 370.614C347.336 370.614 344.781 369.553 342.895 367.667L322.803 347.562C318.874 343.633 318.874 337.269 322.803 333.34C326.73 329.413 333.096 329.413 337.023 333.34L350.006 346.334L383.085 313.246C387.013 309.317 393.377 309.317 397.308 313.246C401.237 317.168 401.237 323.539 397.308 327.467L357.117 367.667C355.231 369.555 352.679 370.614 350.006 370.614Z" fill="#EA3882"/>
</g>
</g>
<path d="M184.386 272.461L191.711 277.364L187.961 285.994L199.401 293.489L194.991 303.634L164.214 283.274L173.244 262.489L180.556 269.021L176.481 278.399L180.634 281.091L184.386 272.461ZM191.919 303.686L194.139 305.149L181.916 326.709L191.919 303.686ZM182.424 297.396L184.634 298.884L172.409 320.444L182.424 297.396ZM177.711 294.266L179.921 295.754L167.696 317.314L177.711 294.266ZM172.964 291.151L175.184 292.616L162.959 314.174L172.964 291.151ZM168.231 288.069L170.471 289.486L158.246 311.044L168.231 288.069ZM187.159 300.536L189.356 301.991L177.146 323.584L187.159 300.536ZM163.494 284.929L165.714 286.394L153.511 307.906L163.494 284.929ZM183.906 245.114L194.264 231.104C198.204 225.774 202.561 224.871 207.334 228.399C209.296 229.851 210.949 231.524 212.286 233.419C214.849 236.999 215.826 240.379 215.226 243.564L227.224 247.656L220.011 257.411L209.716 253.154L208.311 255.056L215.899 262.974L209.324 271.871L183.906 245.114ZM202.034 248.486L203.561 246.421C204.346 245.359 204.826 244.469 204.999 243.751C205.171 243.034 204.771 242.161 203.804 241.129C202.841 240.121 202.236 239.526 201.991 239.346C201.364 238.884 200.791 238.829 200.276 239.184C199.746 239.529 199.079 240.249 198.271 241.341L196.956 243.119L202.034 248.486ZM206.316 271.231L208.151 273.156L191.396 291.416L206.316 271.231ZM198.476 262.969L200.296 264.914L183.541 283.174L198.476 262.969ZM190.634 254.796L192.466 256.721L175.741 274.941L190.634 254.796ZM186.744 250.689L188.579 252.614L171.851 270.834L186.744 250.689ZM202.386 267.091L204.201 269.001L187.451 287.299L202.386 267.091ZM182.834 246.564L184.669 248.491L167.941 266.709L182.834 246.564ZM194.544 258.921L196.376 260.846L179.651 279.066L194.544 258.921ZM237.696 224.529L241.266 221.624C242.436 220.671 243.191 219.826 243.534 219.091C243.876 218.331 243.716 217.369 243.054 216.204L235.609 202.784L231.999 205.721C230.854 206.651 230.111 207.499 229.769 208.256C229.429 208.994 229.584 209.949 230.231 211.126L237.696 224.529ZM227.204 196.804C231.019 193.701 234.344 192.229 237.184 192.386C240.011 192.556 242.686 194.194 245.211 197.299C247.726 200.389 249.871 204.021 251.649 208.191C253.436 212.376 254.031 216.264 253.434 219.856C252.834 223.471 250.501 226.931 246.436 230.236C242.359 233.554 238.906 235.126 236.081 234.956C233.241 234.796 230.564 233.171 228.049 230.081C226.851 228.609 225.476 226.491 223.929 223.729C222.381 220.966 221.239 218.421 220.501 216.091C219.751 213.771 219.436 211.491 219.559 209.251C219.789 204.911 222.336 200.761 227.204 196.804V196.804ZM222.011 223.749L222.596 224.749C222.734 225.051 222.946 225.436 223.236 225.899L203.959 238.436L222.011 223.749ZM206.981 243.156L224.894 228.584C225.369 229.356 225.836 230.024 226.299 230.589L206.981 243.156ZM201.514 233.214L219.564 218.526L220.521 220.829L201.514 233.214ZM211.104 247.016L228.326 233.004C229.129 233.749 229.749 234.294 230.184 234.641L211.104 247.016ZM200.129 227.159L217.884 212.714C218.094 213.831 218.286 214.671 218.456 215.231L200.129 227.159ZM218.971 247.861L233.236 236.256C234.184 236.644 235.086 236.839 235.941 236.841L218.971 247.861ZM202.811 217.761L218.634 204.889C218.216 206.146 217.951 207.194 217.841 208.026L202.811 217.761ZM262.214 190.446L238.721 198.344L261.491 187.894C261.631 188.689 261.874 189.539 262.214 190.446V190.446ZM237.879 192.601L260.576 182.186L260.851 184.856L237.879 192.601ZM241.519 203.216L263.454 193.149C263.946 194.061 264.449 194.791 264.964 195.339L241.519 203.216ZM274.266 197.199L245.229 207.641L267.996 197.194C269.669 197.789 271.759 197.789 274.266 197.199V197.199ZM239.496 185.704L262.219 175.276C261.649 176.191 261.204 177.271 260.881 178.519L239.496 185.704ZM266.676 206.754L246.661 213.141L266.424 204.071L266.676 206.754ZM267.344 212.661L248.104 218.664L267.056 209.964L267.344 212.661ZM268.976 211.464L267.936 201.391C271.264 200.834 274.151 199.994 276.601 198.869C279.051 197.744 281.001 196.729 282.449 195.821L281.646 192.971L277.086 194.561C273.594 195.771 270.874 196.106 268.926 195.564C266.989 194.999 265.516 193.621 264.514 191.431C264.081 190.491 263.706 189.386 263.384 188.116C262.121 183.249 262.179 179.471 263.556 176.789C264.921 174.111 267.829 171.749 272.284 169.706C276.736 167.661 280.876 166.294 284.701 165.601L285.831 175.324C282.524 176.206 279.946 177.074 278.099 177.924C276.249 178.771 274.701 179.586 273.454 180.361L274.201 183.154L277.909 181.899C281.691 180.629 284.641 180.311 286.759 180.944C288.876 181.576 290.446 183.001 291.464 185.221C292.496 187.471 293.084 190.009 293.224 192.836C293.266 194.309 293.184 195.596 292.981 196.696C292.794 197.791 292.379 198.839 291.739 199.841C291.106 200.821 290.491 201.636 289.894 202.284C289.289 202.916 288.439 203.566 287.346 204.236C285.841 205.226 283.886 206.271 281.484 207.374C277.124 209.376 272.954 210.739 268.976 211.464V211.464ZM333.276 154.499L333.219 163.964L325.331 165.359L325.406 192.799L314.511 194.726L314.461 167.281L306.599 168.671L306.654 159.209L333.276 154.499ZM312.724 192.201L312.729 194.861L287.979 196.579L312.724 192.201ZM312.721 180.811L312.704 183.476L287.979 185.189L312.721 180.811ZM312.704 175.159L312.709 177.819L287.986 179.531L312.704 175.159ZM312.706 169.476L312.711 172.136L287.986 173.849L312.706 169.476ZM312.721 186.494L312.696 189.134L287.976 190.871L312.721 186.494ZM304.824 165.214L304.879 167.864L280.156 169.579L304.824 165.214ZM304.826 159.531L304.806 162.196L280.131 163.899L304.826 159.531ZM347.556 187.539L346.934 190.124L322.556 185.956L347.556 187.539ZM348.826 181.986L348.256 184.549L323.901 180.409L348.826 181.986ZM348.671 176.371L349.014 179.016L324.584 174.846L348.671 176.371ZM347.906 170.741L348.274 173.389L323.844 169.219L347.906 170.741ZM322.391 157.939L346.429 159.459L346.771 162.106L322.391 157.939ZM323.156 163.569L347.169 165.089L347.536 167.736L323.156 163.569ZM345.716 153.809L346.084 156.456L321.704 152.289L345.716 153.809ZM347.469 153.919L359.651 154.691L359.604 167.506L360.011 167.531L366.149 155.101L378.334 155.871L362.041 181.344L359.741 191.111L348.701 190.414L351.026 180.649L347.469 153.919ZM408.059 162.651L424.921 168.671C427.541 169.606 429.284 170.751 430.149 172.104C431.006 173.436 431.094 175.051 430.416 176.951C429.431 179.714 428.004 181.769 426.136 183.119C424.284 184.474 422.401 185.061 420.484 184.881L420.324 185.176C423.374 186.969 424.236 189.724 422.909 193.444C421.734 196.734 419.854 199.176 417.269 200.774C414.689 202.354 411.776 202.566 408.534 201.411L389.804 194.724L408.059 162.651ZM411.531 187.114L407.436 185.654L404.461 190.884L408.509 192.329C409.419 192.654 410.244 192.534 410.986 191.971C411.706 191.419 412.269 190.574 412.674 189.439C413.079 188.304 412.699 187.531 411.531 187.114V187.114ZM417.731 174.584L414.451 173.411L411.704 178.156L414.939 179.311C416.616 179.909 417.876 179.026 418.719 176.664C419.084 175.641 418.756 174.949 417.731 174.584ZM389.546 191.661L388.234 193.976L365.904 183.224L389.546 191.661ZM395.186 181.766L393.849 184.071L371.519 173.319L395.186 181.766ZM397.991 176.854L396.656 179.159L374.326 168.406L397.991 176.854ZM400.784 171.909L399.471 174.221L377.141 163.469L400.784 171.909ZM403.541 166.979L402.279 169.309L379.949 158.559L403.541 166.979ZM392.369 186.701L391.066 188.991L368.704 178.254L392.369 186.701ZM406.356 162.044L405.046 164.356L382.764 153.621L406.356 162.044ZM438.109 214.831L428.679 209.044L453.149 181.419L462.556 187.191L438.109 214.831ZM429.059 205.994L427.296 207.989L407.661 192.866L429.059 205.994ZM436.614 197.471L434.831 199.451L415.196 184.331L436.614 197.471ZM440.371 193.244L438.591 195.224L418.954 180.101L440.371 193.244ZM444.121 188.979L442.361 190.974L422.726 175.851L444.121 188.979ZM447.836 184.724L446.121 186.744L426.484 171.624L447.836 184.724ZM432.844 201.724L431.096 203.694L411.424 188.581L432.844 201.724ZM451.609 180.474L449.849 182.466L430.256 167.374L451.609 180.474ZM499.101 218.686L491.549 224.389L485.649 218.969L463.894 235.696L455.746 228.214L477.519 211.501L471.639 206.101L479.189 200.396L499.101 218.686ZM456.666 225.259L454.556 226.879L438.159 208.259L456.666 225.259ZM465.714 218.339L463.586 219.941L447.209 201.341L465.714 218.339ZM470.194 214.891L468.084 216.511L451.706 197.911L470.194 214.891ZM474.709 211.441L472.599 213.061L456.221 194.461L474.709 211.441ZM461.199 221.789L459.086 223.374L442.691 204.791L461.199 221.789ZM473.306 202.591L471.234 204.246L454.856 185.644L473.306 202.591ZM477.821 199.141L475.694 200.744L459.354 182.179L477.821 199.141ZM510.831 259.176L502.976 262.614L496.836 253.411L492.766 255.239L500.276 266.496L491.629 270.306L477.979 249.849L511.769 235.009L525.249 255.214L515.826 257.864L509.219 247.961L504.706 249.994L510.831 259.176ZM479.601 247.239L477.166 248.311L465.669 226.356L479.601 247.239ZM490.031 242.664L487.584 243.716L476.086 221.761L490.031 242.664ZM495.216 240.399L492.769 241.449L481.269 219.496L495.216 240.399ZM500.406 238.096L497.974 239.169L486.474 217.214L500.406 238.096ZM505.561 235.789L503.156 236.904L491.659 214.949L505.561 235.789ZM484.826 244.944L482.414 246.004L470.881 224.041L484.826 244.944ZM510.766 233.509L508.334 234.581L496.864 212.669L510.766 233.509ZM520.989 277.011L514.761 253.024L523.584 276.469C522.781 276.554 521.916 276.734 520.989 277.011V277.011ZM520.546 252.584L529.344 275.959L526.659 276.046L520.546 252.584ZM509.704 255.469L518.204 278.059C517.259 278.486 516.496 278.936 515.914 279.411L509.704 255.469ZM513.404 288.561L505.026 258.859L513.851 282.306C513.141 283.931 512.991 286.016 513.404 288.561ZM527.316 254.684L536.121 278.084C535.249 277.451 534.201 276.931 532.979 276.521L527.316 254.684ZM504.406 280.316L499.441 259.901L507.099 280.254L504.406 280.316ZM498.469 280.566L493.831 260.954L501.176 280.471L498.469 280.566ZM499.546 282.281L509.669 281.951C509.991 285.309 510.626 288.249 511.574 290.771C512.524 293.294 513.399 295.311 514.204 296.821L517.101 296.219L515.836 291.559C514.874 287.989 514.731 285.254 515.411 283.349C516.111 281.454 517.589 280.084 519.841 279.236C520.809 278.871 521.939 278.574 523.229 278.341C528.174 277.424 531.936 277.746 534.516 279.311C537.091 280.861 539.244 283.929 540.969 288.514C542.694 293.099 543.769 297.324 544.189 301.189L534.411 301.634C533.761 298.274 533.079 295.641 532.364 293.736C531.646 291.831 530.944 290.231 530.256 288.931L527.421 289.481L528.411 293.269C529.411 297.131 529.521 300.096 528.741 302.164C527.961 304.231 526.429 305.696 524.144 306.559C521.826 307.431 519.254 307.836 516.424 307.779C514.951 307.716 513.674 307.546 512.589 307.264C511.511 306.999 510.494 306.511 509.541 305.804C508.609 305.104 507.839 304.434 507.234 303.791C506.646 303.144 506.056 302.251 505.466 301.114C504.586 299.544 503.679 297.519 502.746 295.044C501.056 290.554 499.989 286.299 499.546 282.281V282.281ZM177.124 434.059L174.251 426.851L183.189 424.959L181.034 419.549L172.094 421.441L169.224 414.236L194.561 408.981L197.424 416.164L188.479 418.034L190.634 423.444L199.591 421.599L202.464 428.804L177.124 434.059ZM170.711 412.684L168.889 413.054L164.186 396.311L170.711 412.684ZM178.544 411.041L176.706 411.444L172.029 394.691L178.544 411.041ZM182.446 410.251L180.599 410.631L175.921 393.879L182.446 410.251ZM186.339 409.439L184.491 409.819L179.814 393.066L186.339 409.439ZM190.199 408.614L188.384 409.009L183.681 392.264L190.199 408.614ZM174.651 411.854L172.804 412.234L168.126 395.481L174.651 411.854ZM194.091 407.801L192.269 408.171L187.584 391.476L194.091 407.801ZM206.136 454.871L200.564 457.089L196.471 450.531L193.556 451.719L198.591 459.789L192.441 462.279L183.299 447.629L207.301 437.956L216.324 452.411L209.681 454.069L205.251 446.969L202.029 448.291L206.136 454.871ZM184.489 445.836L182.761 446.526L175.159 430.884L184.489 445.836ZM191.904 442.826L190.169 443.551L182.586 427.896L191.904 442.826ZM195.604 441.359L193.854 442.061L186.274 426.406L195.604 441.359ZM199.291 439.866L197.541 440.569L189.959 424.914L199.291 439.866ZM202.941 438.369L201.226 439.079L193.624 423.436L202.941 438.369ZM188.219 444.319L186.469 445.021L178.886 429.366L188.219 444.319ZM206.629 436.876L204.899 437.566L197.324 421.969L206.629 436.876ZM209.644 478.004L205.576 479.519L200.144 473.426L226.306 464.474L234.279 473.414L216.461 491.724L211.011 485.611L213.911 482.786L209.644 478.004ZM216.179 475.586L218.344 478.014L223.679 473.259L223.406 472.954L216.179 475.586ZM201.249 471.724L199.394 472.356L189.601 458.666L201.249 471.724ZM205.326 470.336L203.456 470.949L193.681 457.279L205.326 470.336ZM209.334 468.944L207.496 469.596L197.721 455.924L209.334 468.944ZM213.374 467.589L211.501 468.204L201.744 454.549L213.374 467.589ZM217.381 466.196L215.541 466.849L205.784 453.196L217.381 466.196ZM225.409 463.469L223.609 464.086L213.846 450.504L225.409 463.469ZM221.369 464.821L219.586 465.424L209.806 451.859L221.369 464.821ZM213.846 450.504L223.609 464.086L225.409 463.469L213.846 450.504ZM242.406 505.616L237.446 510.026L225.296 500.381L244.664 483.219L250.719 488.024L236.331 500.794L242.406 505.616ZM225.816 498.294L224.419 499.521L212.009 487.336L225.816 498.294ZM231.791 492.971L230.399 494.236L218.006 482.031L231.791 492.971ZM234.784 490.346L233.371 491.596L220.979 479.389L234.784 490.346ZM237.759 487.706L236.344 488.954L223.951 476.749L237.759 487.706ZM240.694 485.069L239.316 486.314L226.909 474.129L240.694 485.069ZM228.819 495.614L227.406 496.861L215.014 484.656L228.819 495.614ZM243.666 482.426L242.269 483.656L229.901 471.501L243.666 482.426ZM276.611 504.534L272.264 509.519L267.419 506.619L254.836 521.199L248.181 517.214L260.764 502.634L255.984 499.774L260.331 494.786L276.611 504.534ZM248.401 515.064L247.176 516.466L233.279 506.011L248.401 515.064ZM253.629 509.004L252.391 510.429L238.506 499.951L253.629 509.004ZM256.231 505.996L255.014 507.434L241.109 496.944L256.231 505.996ZM258.854 503.001L257.616 504.426L243.731 493.949L258.854 503.001ZM251.029 512.014L249.791 513.436L235.906 502.959L251.029 512.014ZM256.619 497.129L255.416 498.544L241.519 488.089L256.619 497.129ZM259.219 494.121L257.996 495.524L244.141 485.094L259.219 494.121ZM291.284 537.486L284.024 534.754L288.644 526.874L283.194 524.824L278.571 532.704L271.311 529.974L284.494 507.706L291.731 510.426L287.086 518.299L292.539 520.349L297.206 512.486L304.466 515.216L291.284 537.486ZM271.166 527.829L270.214 529.426L254.669 521.624L271.166 527.829ZM275.229 520.931L274.289 522.561L258.754 514.736L275.229 520.931ZM277.274 517.516L276.311 519.136L260.776 511.311L277.274 517.516ZM279.294 514.091L278.331 515.714L262.799 507.889L279.294 514.091ZM281.284 510.681L280.354 512.289L264.811 504.486L281.284 510.681ZM273.206 524.356L272.244 525.976L256.709 518.151L273.206 524.356ZM283.304 507.259L282.351 508.856L266.856 501.071L283.304 507.259ZM307.324 540.411L306.669 542.154L290.014 537.239L307.324 540.411ZM308.666 536.624L308.056 538.399L291.429 533.464L308.666 536.624ZM309.021 532.706L309.036 534.599L292.361 529.651L309.021 532.706ZM308.951 528.714L308.994 530.609L292.316 525.661L308.951 528.714ZM292.224 517.706L308.834 520.754L308.879 522.624L292.224 517.706ZM292.299 521.676L308.909 524.724L308.924 526.614L292.299 521.676ZM308.816 516.769L308.861 518.639L292.206 513.721L308.816 516.769ZM310.041 516.991L318.446 518.534L317.356 527.436L317.659 527.491L322.949 519.359L331.381 520.906L317.929 537.289L315.501 543.901L307.871 542.504L310.299 535.889L310.041 516.991ZM349.279 547.711L341.524 547.601L346.384 522.184L354.114 522.294L349.279 547.711ZM340.661 545.631L340.304 547.456L323.036 545.384L340.661 545.631ZM342.144 537.766L341.814 539.619L324.546 537.519L342.144 537.766ZM342.911 533.861L342.556 535.714L325.289 533.611L342.911 533.861ZM343.654 529.954L343.296 531.806L326.031 529.706L343.654 529.954ZM344.371 526.074L344.039 527.899L326.771 525.824L344.371 526.074ZM341.404 541.674L341.046 543.526L323.779 541.426L341.404 541.674ZM345.111 522.166L344.756 523.991L327.539 521.919L345.111 522.166ZM361.441 533.669L361.416 534.519C361.389 534.726 361.374 535.026 361.369 535.421L345.229 535.606L361.441 533.669ZM345.264 539.549L361.326 537.629C361.334 538.259 361.369 538.836 361.429 539.356L345.264 539.549ZM345.749 531.601L361.936 529.666L361.656 531.391L345.749 531.601ZM346.234 543.376L361.714 541.526C361.921 542.269 362.084 542.831 362.199 543.211L346.234 543.376ZM347.181 527.511L363.141 525.604C362.854 526.339 362.649 526.909 362.526 527.316L347.181 527.511ZM350.594 546.851L363.399 545.321C363.826 545.901 364.291 546.351 364.789 546.666L350.594 546.851ZM352.299 522.954L366.516 521.256C365.799 521.821 365.244 522.331 364.854 522.786L352.299 522.954ZM373.199 546.736C369.781 547.144 367.261 546.771 365.636 545.616C364.014 544.479 363.039 542.529 362.709 539.769C362.569 538.606 362.551 536.876 362.651 534.576C362.904 529.834 363.899 526.291 365.634 523.949C367.366 521.591 370.379 520.154 374.671 519.639C375.664 519.521 376.821 519.494 378.146 519.559C379.449 519.609 380.414 519.741 381.036 519.956L379.506 526.439C377.876 526.241 376.364 526.226 374.966 526.391C373.569 526.559 372.591 526.811 372.036 527.154C371.479 527.494 371.181 528.076 371.144 528.899L370.544 539.754C371.544 539.839 372.559 539.821 373.586 539.699C375.774 539.436 377.731 538.879 379.456 538.024L379.611 544.894C377.979 545.806 375.841 546.421 373.199 546.736ZM405.824 523.141L406.424 529.109L398.991 531.239L399.331 534.369L408.476 531.749L409.176 538.346L392.574 543.104L389.884 517.366L406.264 512.671L406.029 519.511L397.984 521.816L398.369 525.279L405.824 523.141ZM391.179 541.466L391.366 543.319L374.236 546.321L391.179 541.466ZM390.329 533.509L390.546 535.379L373.409 538.356L390.329 533.509ZM389.934 529.549L390.129 531.424L372.991 534.401L389.934 529.549ZM389.516 525.594L389.709 527.469L372.571 530.449L389.516 525.594ZM389.079 521.671L389.291 523.514L372.161 526.519L389.079 521.671ZM390.746 537.464L390.941 539.339L373.804 542.319L390.746 537.464ZM388.661 517.716L388.846 519.566L371.766 522.556L388.661 517.716ZM423.599 518.544L423.874 519.346C423.924 519.551 424.016 519.836 424.151 520.206L409.129 526.111L423.599 518.544ZM410.561 529.781L424.894 522.286C425.124 522.874 425.361 523.401 425.606 523.866L410.561 529.781ZM408.194 522.179L422.639 514.626L422.989 516.336L408.194 522.179ZM412.826 533.016L426.641 525.791C427.099 526.411 427.449 526.881 427.691 527.196L412.826 533.016ZM408.081 517.849L422.324 510.399C422.316 511.189 422.326 511.794 422.356 512.219L408.081 517.849ZM418.136 534.719L429.561 528.744C430.166 529.134 430.759 529.389 431.339 529.506L418.136 534.719ZM411.246 511.771L423.936 505.139C423.466 505.921 423.129 506.594 422.926 507.159L411.246 511.771ZM439.226 526.589C436.176 528.184 433.686 528.729 431.759 528.226C429.839 527.739 428.234 526.261 426.946 523.796C426.404 522.759 425.771 521.149 425.051 518.961C423.604 514.436 423.276 510.771 424.066 507.969C424.849 505.149 427.156 502.736 430.989 500.731C431.876 500.269 432.949 499.831 434.206 499.421C435.441 499.004 436.391 498.786 437.049 498.769L437.921 505.374C436.329 505.766 434.909 506.289 433.661 506.941C432.414 507.594 431.591 508.176 431.189 508.691C430.789 509.206 430.716 509.856 430.974 510.641L434.269 521.001C435.234 520.726 436.176 520.349 437.091 519.869C439.044 518.846 440.676 517.631 441.986 516.219L444.569 522.589C443.366 524.021 441.586 525.354 439.226 526.589V526.589ZM444.291 493.201L454.049 485.821C457.754 483.019 460.859 483.274 463.366 486.586C464.399 487.951 465.179 489.404 465.704 490.941C466.714 493.876 466.696 496.344 465.656 498.344L472.931 503.494L466.136 508.631L460.061 503.721L458.724 504.734L462.261 511.561L456.074 516.241L444.291 493.201ZM455.826 499.049L457.246 497.976C457.991 497.414 458.489 496.909 458.746 496.459C459.001 496.011 458.906 495.349 458.459 494.476C458.024 493.594 457.741 493.064 457.609 492.886C457.281 492.454 456.904 492.304 456.471 492.439C456.041 492.574 455.446 492.926 454.691 493.499L453.454 494.436L455.826 499.049ZM454.184 515.216L455.024 516.876L440.124 525.849L454.184 515.216ZM450.521 508.099L451.399 509.764L436.484 518.716L450.521 508.099ZM446.871 501.039L447.749 502.704L432.856 511.639L446.871 501.039ZM445.094 497.506L445.934 499.166L431.056 508.121L445.094 497.506ZM452.336 511.639L453.194 513.319L438.279 522.269L452.336 511.639ZM443.279 493.966L444.119 495.626L429.261 504.569L443.279 493.966ZM448.686 504.576L449.544 506.256L434.671 515.176L448.686 504.576ZM483.904 471.154L487.494 475.956L482.224 481.614L484.129 484.119L490.611 477.159L494.616 482.451L482.846 495.089L467.266 474.426L478.879 461.956L482.204 467.939L476.501 474.061L478.616 476.829L483.904 471.154ZM480.806 494.406L481.921 495.896L468.794 507.304L480.806 494.406ZM475.974 488.026L477.124 489.516L463.979 500.906L475.974 488.026ZM473.591 484.836L474.726 486.344L461.579 497.734L473.591 484.836ZM471.194 481.664L472.326 483.171L459.181 494.561L471.194 481.664ZM468.796 478.529L469.929 479.999L456.801 491.409L468.796 478.529ZM478.371 491.199L479.504 492.706L466.359 504.096L478.371 491.199ZM466.399 475.356L467.514 476.846L454.421 488.216L466.399 475.356ZM505.329 461.751L507.849 465.284L503.379 472.116L487.931 449.184L494.489 439.159L516.801 451.601L512.319 458.454L508.836 456.389L505.329 461.751ZM501.294 456.071L503.076 453.349L497.096 449.436L496.874 449.776L501.294 456.071ZM501.446 471.491L502.541 473.119L491.866 486.134L501.446 471.491ZM499.046 467.914L500.126 469.564L489.466 482.556L499.046 467.914ZM496.661 464.409L497.766 466.014L487.109 479.006L496.661 464.409ZM494.301 460.859L495.381 462.506L484.736 475.479L494.301 460.859ZM491.916 457.351L493.024 458.959L482.376 471.931L491.916 457.351ZM487.191 450.311L488.256 451.889L477.681 464.846L487.191 450.311ZM489.551 453.859L490.594 455.424L480.039 468.396L489.551 453.859ZM477.681 464.846L488.256 451.889L487.191 450.311L477.681 464.846ZM520.561 440.386L522.126 441.421L514.276 456.854L520.561 440.386ZM517.189 438.094L518.761 439.184L510.904 454.559L517.189 438.094ZM513.849 435.864L515.439 436.906L507.581 452.284L513.849 435.864ZM510.524 433.589L512.096 434.679L504.256 450.009L510.524 433.589ZM507.184 431.361L508.771 432.404L500.934 447.731L507.184 431.361ZM503.884 429.094L505.439 430.151L497.624 445.489L503.884 429.094ZM500.541 426.866L502.106 427.899L494.301 443.214L500.541 426.866ZM514.961 425.891L525.564 432.769L522.681 440.326L500.994 425.676L504.604 416.221L516.986 420.156L517.086 419.896L506.864 410.304L510.464 400.871L533.201 412.764L530.299 420.366L519.369 414.341L519.269 414.604L528.994 423.789L526.889 429.301L515.034 425.701L514.961 425.891ZM156.034 355.446C156.034 347.599 162.396 341.236 170.244 341.236C178.091 341.236 184.454 347.599 184.454 355.446C184.454 363.294 178.091 369.656 170.244 369.656C162.396 369.656 156.034 363.294 156.034 355.446V355.446ZM518.069 355.446C518.069 347.599 524.431 341.236 532.279 341.236C540.126 341.236 546.489 347.599 546.489 355.446C546.489 363.294 540.126 369.656 532.279 369.656C524.431 369.656 518.069 363.294 518.069 355.446Z" fill="#3A424C"/>
</g>
</g>
</g>
</g>
</g>
<path d="M59.5 210.765L72.34 219.34L65.75 234.5L85.825 247.675L78.1125 265.425L24.1325 229.74L39.9825 193.27L52.775 204.737L45.625 221.192L52.91 225.925L59.5 210.765ZM72.725 265.555L76.6075 268.123L55.1675 305.955L72.725 265.555ZM56.06 254.522L59.945 257.09L38.5025 294.92L56.06 254.522ZM47.7625 249.02L51.6375 251.612L30.2075 289.417L47.7625 249.02ZM39.49 243.53L43.365 246.12L21.9325 283.927L39.49 243.53ZM31.1425 238.143L35.0675 240.618L13.625 278.447L31.1425 238.143ZM64.335 260.015L68.22 262.582L46.7775 300.413L64.335 260.015ZM22.8675 232.65L26.7525 235.217L5.34998 272.957L22.8675 232.65ZM58.675 162.808L76.8625 138.21C83.7725 128.863 91.41 127.28 99.7725 133.462C103.217 136.01 106.115 138.955 108.467 142.303C112.952 148.585 114.66 154.497 113.592 160.037L134.652 167.243L121.98 184.385L103.935 176.873L101.447 180.235L114.757 194.15L103.252 209.713L58.675 162.808ZM90.4575 168.695L93.125 165.088C94.5025 163.223 95.345 161.663 95.6475 160.403C95.9275 159.148 95.2375 157.623 93.575 155.833C91.89 154.043 90.83 152.988 90.3975 152.668C89.3025 151.858 88.2925 151.77 87.3675 152.402C86.4375 153.01 85.2625 154.273 83.845 156.19L81.5375 159.31L90.4575 168.695ZM97.975 208.63L101.182 212.005L71.7875 244.048L97.975 208.63ZM84.2175 194.132L87.425 197.507L58.03 229.552L84.2175 194.132ZM70.48 179.778L73.6725 183.172L44.3525 215.115L70.48 179.778ZM63.6175 172.572L66.825 175.947L37.49 207.91L63.6175 172.572ZM91.045 201.345L94.2525 204.72L64.8575 236.763L91.045 201.345ZM56.7875 165.362L59.9975 168.738L30.6625 200.7L56.7875 165.362ZM77.3075 186.987L80.5025 190.385L51.1825 222.325L77.3075 186.987ZM153.017 126.715L159.272 121.625C161.332 119.95 162.655 118.45 163.245 117.125C163.845 115.812 163.57 114.133 162.42 112.08L149.327 88.5575L142.992 93.71C140.997 95.3325 139.707 96.805 139.117 98.13C138.517 99.4425 138.792 101.122 139.942 103.177L153.017 126.715ZM134.607 78.0525C141.305 72.6025 147.135 70.025 152.097 70.32C157.082 70.6175 161.785 73.4825 166.205 78.9175C170.615 84.3375 174.377 90.72 177.492 98.0625C180.61 105.38 181.652 112.2 180.62 118.518C179.575 124.848 175.482 130.915 168.342 136.725C161.202 142.535 155.137 145.29 150.152 144.995C145.192 144.7 140.5 141.835 136.08 136.4C133.98 133.82 131.567 130.107 128.84 125.267C126.127 120.415 124.125 115.957 122.835 111.897C121.535 107.822 120.99 103.815 121.205 99.8725C121.59 92.2825 126.057 85.0075 134.607 78.0525V78.0525ZM125.467 125.315L126.522 127.09C126.767 127.605 127.135 128.27 127.625 129.082L93.8225 151.062L125.467 125.315ZM99.1475 159.365L130.54 133.825C131.37 135.165 132.192 136.335 133.01 137.34L99.1475 159.365ZM89.5675 141.92L121.195 116.187L122.895 120.197L89.5675 141.92ZM106.355 166.108L136.555 141.538C137.985 142.843 139.075 143.797 139.825 144.4L106.355 166.108ZM87.095 131.295L118.252 105.945C118.632 107.93 118.965 109.415 119.245 110.4L87.095 131.295ZM120.19 167.62L145.19 147.28C146.852 147.94 148.432 148.27 149.925 148.267L120.19 167.62ZM91.8325 114.838L119.607 92.2375C118.845 94.44 118.357 96.2775 118.145 97.7475L91.8325 114.838ZM196.002 66.92L154.787 80.7825L194.732 62.4575C194.995 63.835 195.417 65.3225 196.002 66.92V66.92ZM153.312 70.675L193.162 52.3925L193.637 57.11L153.312 70.675ZM159.712 89.2825L198.167 71.6375C199.06 73.26 199.942 74.5375 200.812 75.47L159.712 89.2825ZM217.155 78.7575L166.205 97.0875L206.15 78.76C209.1 79.79 212.767 79.79 217.155 78.7575ZM156.175 58.605L196.025 40.32C195.032 41.9025 194.255 43.795 193.692 45.9925L156.175 58.605ZM203.852 95.5075L168.702 106.7L203.377 90.79L203.852 95.5075ZM205.005 105.875L171.252 116.425L204.53 101.155L205.005 105.875ZM207.86 103.76L206.05 86.0975C211.877 85.1425 216.945 83.6775 221.25 81.7025C225.54 79.735 228.96 77.9425 231.51 76.3275L230.11 71.3425L222.077 74.14C215.955 76.265 211.192 76.8425 207.79 75.8725C204.38 74.8875 201.795 72.4775 200.037 68.645C199.275 66.98 198.617 65.045 198.067 62.84C195.857 54.28 195.957 47.645 198.362 42.935C200.76 38.25 205.867 34.1125 213.685 30.5275C221.502 26.94 228.765 24.5425 235.472 23.33L237.45 40.39C231.647 41.925 227.127 43.435 223.892 44.9175C220.64 46.41 217.915 47.845 215.72 49.2225L217.055 54.1275L223.555 51.92C230.17 49.6975 235.337 49.1375 239.06 50.2425C242.782 51.345 245.535 53.8425 247.322 57.735C249.137 61.69 250.175 66.1475 250.437 71.11C250.5 73.705 250.355 75.9625 249.995 77.8825C249.652 79.795 248.922 81.6275 247.805 83.38C246.695 85.11 245.612 86.54 244.56 87.67C243.5 88.785 242.01 89.93 240.092 91.105C237.455 92.85 234.03 94.69 229.815 96.625C222.165 100.135 214.847 102.513 207.86 103.76V103.76ZM320.655 3.8775L320.565 20.45L306.72 22.9L306.84 71.04L287.757 74.415L287.637 26.275L273.89 28.705L273.955 12.1375L320.655 3.8775ZM284.6 70.0075L284.605 74.665L241.225 77.68L284.6 70.0075ZM284.595 50.0225L284.575 54.685L241.222 57.695L284.595 50.0225ZM284.6 40.0675L284.58 44.7275L241.202 47.745L284.6 40.0675ZM284.585 30.1425L284.59 34.7975L241.21 37.8125L284.585 30.1425ZM284.587 59.9525L284.592 64.61L241.212 67.625L284.587 59.9525ZM270.745 22.635L270.822 27.2775L227.467 30.29L270.745 22.635ZM270.727 12.7075L270.732 17.365L227.452 20.3625L270.727 12.7075ZM345.695 61.825L344.602 66.35L301.835 59.05L345.695 61.825ZM347.955 52.045L346.962 56.5775L304.197 49.2775L347.955 52.045ZM347.667 42.23L348.282 46.865L305.417 39.5575L347.667 42.23ZM346.35 32.325L346.965 36.9575L304.1 29.6525L346.35 32.325ZM301.59 9.875L343.712 12.5375L344.33 17.1725L301.59 9.875ZM302.882 19.7775L345.03 22.445L345.647 27.0775L302.882 19.7775ZM342.495 2.665L343.11 7.3L300.37 0L342.495 2.665ZM345.537 2.8575L366.915 4.21L366.83 26.6775L367.535 26.72L378.307 4.93L399.682 6.2825L371.127 50.96L367.065 68.075L347.725 66.8525L351.787 49.7375L345.537 2.8575ZM451.82 18.1725L481.39 28.73C485.995 30.3725 489.055 32.3675 490.572 34.71C492.075 37.0475 492.23 39.885 491.037 43.225C489.302 48.0825 486.81 51.695 483.555 54.065C480.28 56.445 476.97 57.4675 473.632 57.1325L473.325 57.69C478.7 60.8225 480.22 65.655 477.887 72.19C475.832 77.95 472.54 82.2225 468.012 85.0125C463.485 87.8025 458.365 88.1775 452.655 86.1375L419.832 74.4225L451.82 18.1725ZM457.942 61.055L450.727 58.48L445.52 67.6725L452.617 70.205C454.215 70.775 455.662 70.57 456.957 69.5875C458.237 68.6 459.23 67.1175 459.937 65.14C460.65 63.1475 459.985 61.785 457.942 61.055ZM468.817 39.065L463.05 37.005L458.242 45.3775L463.89 47.3925C466.832 48.4425 469.047 46.8875 470.532 42.7275C471.177 40.925 470.605 39.7025 468.817 39.065V39.065ZM419.34 69.055L417.04 73.1025L377.857 54.245L419.34 69.055ZM429.232 51.69L426.93 55.7375L387.747 36.88L429.232 51.69ZM434.165 43.0425L431.84 47.0825L392.682 28.2325L434.165 43.0425ZM439.09 34.4175L436.765 38.4575L397.607 19.61L439.09 34.4175ZM443.905 25.73L441.697 29.81L402.515 10.9525L443.905 25.73ZM424.307 60.3125L422.005 64.36L382.822 45.5025L424.307 60.3125ZM448.83 17.105L446.527 21.1525L407.44 2.33L448.83 17.105ZM504.515 109.665L488.02 99.545L530.907 51.09L547.402 61.2125L504.515 109.665ZM488.642 94.19L485.557 97.6775L451.1 71.155L488.642 94.19ZM501.9 79.235L498.812 82.7225L464.355 56.2L501.9 79.235ZM508.507 71.79L505.4 75.265L470.965 48.7525L508.507 71.79ZM515.102 64.365L511.995 67.84L477.56 41.33L515.102 64.365ZM521.605 56.855L518.605 60.395L484.147 33.87L521.605 56.855ZM495.305 86.66L492.217 90.1475L457.76 63.6225L495.305 86.66ZM528.2 49.43L525.115 52.9175L490.742 26.445L528.2 49.43ZM611.502 116.453L598.282 126.447L587.927 116.935L549.757 146.272L535.487 133.162L573.655 103.827L563.375 94.3825L576.575 84.37L611.502 116.453ZM537.067 127.978L533.372 130.81L504.627 98.18L537.067 127.978ZM552.942 115.835L549.227 118.65L520.502 86.0375L552.942 115.835ZM560.855 109.792L557.14 112.607L528.395 79.9775L560.855 109.792ZM568.73 103.75L565.035 106.582L536.29 73.9525L568.73 103.75ZM545.047 121.86L541.352 124.692L512.607 92.0625L545.047 121.86ZM566.287 88.195L562.645 91.08L533.92 58.4675L566.287 88.195ZM574.162 82.155L570.465 84.9875L541.797 52.425L574.162 82.155ZM632.095 187.46L618.32 193.468L607.567 177.348L600.382 180.565L613.57 200.333L598.412 206.992L574.487 171.125L633.722 145.085L657.372 180.535L640.872 185.18L629.265 167.78L621.34 171.34L632.095 187.46ZM577.295 166.525L573.032 168.4L552.85 129.882L577.295 166.525ZM595.595 158.495L591.332 160.37L571.15 121.853L595.595 158.495ZM604.715 154.502L600.437 156.355L580.27 117.86L604.715 154.502ZM613.815 150.522L609.537 152.378L589.37 113.88L613.815 150.522ZM622.862 146.425L618.657 148.383L598.475 109.865L622.862 146.425ZM586.497 162.475L582.235 164.35L562.052 125.833L586.497 162.475ZM631.962 142.445L627.7 144.32L607.572 105.885L631.962 142.445ZM649.902 218.74L638.967 176.653L654.442 217.785C653.05 217.95 651.537 218.268 649.902 218.74V218.74ZM649.155 175.89L664.595 216.928L659.855 217.068L649.155 175.89ZM630.145 180.968L645.042 220.567C643.36 221.345 642.025 222.135 641.035 222.938L630.145 180.968ZM636.607 239.007L621.902 186.895L637.377 228.027C636.142 230.897 635.885 234.557 636.607 239.007ZM660.995 179.592L676.432 220.63C674.922 219.527 673.092 218.62 670.94 217.905L660.995 179.592ZM620.835 224.56L612.14 188.713L625.572 224.42L620.835 224.56ZM610.412 224.982L602.257 190.572L615.15 224.84L610.412 224.982ZM612.32 227.98L630.065 227.415C630.607 233.295 631.715 238.452 633.382 242.885C635.045 247.302 636.59 250.84 638.022 253.498L643.092 252.453L640.867 244.242C639.177 237.985 638.937 233.195 640.142 229.87C641.365 226.537 643.95 224.13 647.897 222.642C649.612 221.997 651.587 221.477 653.827 221.085C662.522 219.482 669.132 220.048 673.66 222.778C678.165 225.498 681.932 230.882 684.962 238.935C687.992 246.985 689.875 254.4 690.61 261.175L673.455 261.947C672.332 256.052 671.142 251.437 669.89 248.105C668.63 244.755 667.39 241.938 666.17 239.65L661.182 240.637L662.927 247.278C664.68 254.033 664.875 259.225 663.512 262.862C662.152 266.497 659.467 269.07 655.457 270.578C651.385 272.11 646.865 272.832 641.897 272.745C639.305 272.625 637.062 272.32 635.172 271.828C633.287 271.353 631.512 270.495 629.842 269.258C628.195 268.028 626.845 266.85 625.792 265.72C624.755 264.585 623.717 263.017 622.677 261.02C621.12 258.267 619.527 254.72 617.895 250.382C614.932 242.505 613.072 235.038 612.32 227.98V227.98ZM81.3 492.412L66.27 495.95L59.68 480.79L36.3525 486.478L28.64 468.727L91.555 453.61L107.405 490.08L90.2925 491.61L83.1425 475.155L74.7125 477.253L81.3 492.412ZM32.2175 464.697L27.69 465.788L14.6625 424.3L32.2175 464.697ZM51.655 460.042L47.1275 461.133L34.0975 419.645L51.655 460.042ZM61.3375 457.73L56.8 458.797L43.78 417.332L61.3375 457.73ZM70.9975 455.428L66.46 456.495L53.44 415.03L70.9975 455.428ZM80.63 453L76.1425 454.183L63.1125 412.695L80.63 453ZM41.995 462.345L37.4675 463.435L24.4375 421.948L41.995 462.345ZM90.29 450.698L85.7625 451.787L72.7725 410.392L90.29 450.698ZM117.787 506.138L135.975 530.735C142.885 540.083 142.16 547.847 133.8 554.03C130.355 556.577 126.687 558.483 122.8 559.753C115.477 562.2 109.325 562.1 104.34 559.453L91.2775 577.477L78.605 560.335L91.075 545.285L88.59 541.922L71.385 550.57L59.8775 535.008L117.787 506.138ZM102.845 534.798L105.512 538.405C106.89 540.27 108.137 541.53 109.25 542.19C110.367 542.825 112.027 542.612 114.23 541.55C116.435 540.462 117.752 539.76 118.185 539.44C119.28 538.63 119.66 537.69 119.327 536.62C119.02 535.552 118.155 534.06 116.737 532.142L114.432 529.02L102.845 534.798ZM62.46 530.277L58.295 532.355L36.275 494.86L62.46 530.277ZM80.3525 521.375L76.185 523.452L54.1675 485.955L80.3525 521.375ZM98.105 512.45L93.9225 514.507L71.9775 477.11L98.105 512.45ZM107.005 508L102.837 510.078L80.8775 472.663L107.005 508ZM71.4575 525.788L67.29 527.868L45.27 490.37L71.4575 525.788ZM115.9 503.585L111.735 505.662L89.775 468.247L115.9 503.585ZM89.21 516.862L85.0275 518.92L63.0825 481.525L89.21 516.862ZM139.045 603.112L145.3 608.2C147.36 609.875 149.097 610.868 150.512 611.175C151.92 611.495 153.51 610.885 155.285 609.342L175.652 591.738L169.317 586.585C167.322 584.963 165.617 583.998 164.202 583.688C162.795 583.368 161.205 583.977 159.43 585.522L139.045 603.112ZM182.942 575.187C189.64 580.637 193.35 585.82 194.07 590.74C194.792 595.68 192.942 600.867 188.522 606.302C184.112 611.722 178.63 616.705 172.075 621.247C165.545 625.787 159.08 628.195 152.685 628.47C146.275 628.735 139.5 625.963 132.357 620.153C125.217 614.343 121.285 608.967 120.562 604.027C119.842 599.11 121.692 593.935 126.115 588.5C128.215 585.92 131.357 582.802 135.542 579.147C139.742 575.502 143.697 572.637 147.412 570.547C151.137 568.445 154.952 567.098 158.855 566.505C166.365 565.34 174.395 568.232 182.942 575.187V575.187ZM134.81 575.855L133.287 577.248C132.832 577.593 132.257 578.087 131.557 578.732L103.162 550.107L134.81 575.855ZM96.1175 557.012L127.507 582.552C126.365 583.637 125.385 584.68 124.57 585.685L96.1175 557.012ZM111.25 544.082L142.875 569.813L139.297 572.295L111.25 544.082ZM90.9825 565.438L121.182 590.01C120.195 591.675 119.482 592.937 119.045 593.792L90.9825 565.438ZM121.15 539.5L152.307 564.85C150.44 565.628 149.055 566.252 148.147 566.727L121.15 539.5ZM92.315 579.29L117.317 599.63C117.01 601.393 117.007 603.005 117.312 604.468L92.315 579.29ZM138.227 540.79L166.002 563.387C163.69 563.087 161.792 562.985 160.31 563.078L138.227 540.79ZM206.505 622.842L169.115 600.643L209.057 618.97C208.185 620.067 207.332 621.357 206.505 622.842ZM175.815 592.93L215.665 611.215L212.397 614.652L175.815 592.93ZM165.885 609.917L204.34 627.562C203.692 629.297 203.297 630.8 203.16 632.065L165.885 609.917ZM211.325 646.598L164.202 619.93L204.145 638.257C205.287 641.165 207.68 643.945 211.325 646.598ZM186.83 587.228L226.682 605.513C224.835 605.793 222.895 606.435 220.862 607.445L186.83 587.228ZM189.952 647.438L158.545 628.092L193.22 644.003L189.952 647.438ZM182.845 655.072L152.835 636.367L186.112 651.637L182.845 655.072ZM186.31 655.857L198.52 642.968C203.045 646.763 207.46 649.647 211.765 651.622C216.055 653.59 219.645 655.015 222.53 655.898L225.395 651.585L218.037 647.32C212.432 644.065 208.89 640.83 207.405 637.617C205.927 634.39 206.07 630.86 207.83 627.028C208.592 625.363 209.632 623.603 210.945 621.748C215.995 614.49 221.087 610.237 226.225 608.99C231.34 607.752 237.807 608.925 245.622 612.513C253.44 616.1 259.995 620.04 265.29 624.335L253.647 636.96C248.7 633.562 244.607 631.123 241.372 629.635C238.12 628.143 235.255 627.012 232.777 626.247L229.932 630.46L235.845 633.947C241.842 637.512 245.637 641.065 247.227 644.605C248.82 648.145 248.722 651.863 246.937 655.755C245.122 659.71 242.42 663.405 238.83 666.84C236.905 668.58 235.097 669.942 233.407 670.925C231.735 671.912 229.87 672.555 227.81 672.848C225.775 673.133 223.985 673.245 222.442 673.185C220.907 673.107 219.067 672.728 216.925 672.04C213.882 671.18 210.252 669.783 206.04 667.85C198.39 664.34 191.815 660.342 186.31 655.857V655.857ZM333.457 636.382L327.69 651.92L313.845 649.47L297.445 694.73L278.362 691.355L294.762 646.095L281.015 643.662L286.757 628.122L333.457 636.382ZM276.907 686.133L275.315 690.508L233.532 678.46L276.907 686.133ZM283.76 667.36L282.142 671.73L240.385 659.688L283.76 667.36ZM287.177 658.01L285.56 662.38L243.78 650.332L287.177 658.01ZM290.57 648.68L288.975 653.055L247.195 641.008L290.57 648.68ZM280.345 676.685L278.752 681.06L236.97 669.013L280.345 676.685ZM280.142 636.88L278.625 641.27L236.867 629.227L280.142 636.88ZM283.532 627.552L281.94 631.927L240.257 619.897L283.532 627.552ZM348.485 694.902L347.967 699.532L304.625 697.678L348.485 694.902ZM349.492 684.918L349.08 689.538L305.735 687.685L349.492 684.918ZM347.97 675.215L349.165 679.735L305.72 677.89L347.97 675.215ZM345.415 665.555L346.61 670.075L303.165 668.227L345.415 665.555ZM298.182 648.925L340.307 646.26L341.502 650.78L298.182 648.925ZM300.712 658.587L342.862 655.92L344.057 660.44L300.712 658.587ZM337.852 636.618L339.047 641.137L295.73 639.282L337.852 636.618ZM340.897 636.425L362.272 635.075L365.022 657.373L365.725 657.327L373.665 634.352L395.042 633L372.345 680.92L370.47 698.41L351.132 699.635L353.005 682.145L340.897 636.425ZM427.102 625.243L456.672 614.688C461.277 613.045 464.907 612.647 467.567 613.5C470.21 614.357 472.127 616.455 473.32 619.795C475.055 624.652 475.412 629.028 474.395 632.923C473.367 636.84 471.455 639.725 468.655 641.58L468.772 642.207C474.915 641.227 479.152 644.005 481.487 650.54C483.542 656.3 483.702 661.693 481.965 666.718C480.227 671.743 476.502 675.277 470.79 677.315L437.97 689.033L427.102 625.243ZM459 654.553L451.785 657.13L453.575 667.54L460.67 665.007C462.267 664.437 463.257 663.363 463.64 661.78C464.005 660.205 463.835 658.427 463.127 656.45C462.415 654.457 461.04 653.825 459 654.553V654.553ZM453.487 630.648L447.72 632.705L449.302 642.23L454.95 640.212C457.892 639.162 458.622 636.555 457.135 632.395C456.49 630.592 455.275 630.008 453.487 630.648V630.648ZM434.19 685.19L434.972 689.78L392.705 700L434.19 685.19ZM430.847 665.488L431.63 670.078L389.362 680.295L430.847 665.488ZM429.19 655.67L429.947 660.27L387.705 670.48L429.19 655.67ZM427.54 645.878L428.297 650.478L386.055 660.687L427.54 645.878ZM425.762 636.102L426.64 640.66L384.375 650.88L425.762 636.102ZM432.497 675.28L433.28 679.87L391.012 690.088L432.497 675.28ZM424.112 626.31L424.895 630.9L382.725 641.087L424.112 626.31ZM532.725 648.962L516.23 659.085L492.46 598.903L508.955 588.78L532.725 648.962ZM511.74 656.103L513.452 660.435L474.197 679.14L511.74 656.103ZM504.412 637.51L506.122 641.842L466.867 660.547L504.412 637.51ZM500.767 628.245L502.457 632.59L463.222 651.283L500.767 628.245ZM497.135 619.002L498.825 623.348L459.592 642.04L497.135 619.002ZM493.385 609.805L495.182 614.082L455.925 632.788L493.385 609.805ZM508.042 646.752L509.755 651.085L470.5 669.79L508.042 646.752ZM489.752 600.563L491.465 604.893L452.295 623.545L489.752 600.563ZM561.77 542.057L570.61 556.077L560.255 565.588L586.25 606.107L571.977 619.215L545.982 578.698L535.702 588.14L526.845 574.14L561.77 542.057ZM566.945 617.2L569.452 621.123L534.505 646.998L566.945 617.2ZM556.192 600.355L558.682 604.295L523.752 630.153L556.192 600.355ZM550.842 591.958L553.332 595.897L518.382 621.772L550.842 591.958ZM545.49 583.6L547.997 587.523L513.05 613.395L545.49 583.6ZM561.525 608.73L564.035 612.655L529.085 638.527L561.525 608.73ZM529.785 584.715L532.347 588.587L497.417 614.445L529.785 584.715ZM524.432 576.355L526.94 580.277L492.065 606.085L524.432 576.355ZM612.32 511.997L623.155 522.407L612.402 538.527L618.132 543.925L631.317 524.157L643.287 535.595L619.36 571.463L572.567 526.768L596.217 491.32L606.842 504.77L595.235 522.168L601.565 528.117L612.32 511.997ZM614.035 570.635L617.402 573.853L589.59 607.277L614.035 570.635ZM599.592 556.823L602.96 560.037L575.147 593.465L599.592 556.823ZM592.402 549.935L595.757 553.172L567.957 586.577L592.402 549.935ZM585.235 543.063L588.587 546.3L560.79 579.705L585.235 543.063ZM577.975 536.28L581.4 539.412L553.585 572.84L577.975 536.28ZM606.76 563.693L610.13 566.91L582.315 600.335L606.76 563.693ZM570.807 529.408L574.175 532.625L546.417 565.967L570.807 529.408ZM626.332 485.045L606.812 523.9L622.287 482.767C623.442 483.56 624.79 484.32 626.332 485.045ZM598.65 517.76L614.09 476.722L617.747 479.74L598.65 517.76ZM616.292 526.473L631.19 486.872C632.967 487.397 634.492 487.685 635.767 487.733L616.292 526.473ZM649.69 478.565L626.4 527.448L641.875 486.315C644.695 484.97 647.3 482.387 649.69 478.565ZM592.187 507.173L607.627 466.133C608.037 467.955 608.815 469.845 609.962 471.805L592.187 507.173ZM652.03 499.827L634.937 532.518L648.372 496.81L652.03 499.827ZM660.145 506.38L643.595 537.632L656.487 503.363L660.145 506.38ZM660.685 502.868L646.967 491.595C650.435 486.815 653.002 482.208 654.672 477.775C656.335 473.358 657.505 469.678 658.177 466.738L653.675 464.18L649.937 471.82C647.085 477.64 644.108 481.4 641.008 483.107C637.89 484.807 634.36 484.915 630.412 483.43C628.697 482.785 626.87 481.872 624.927 480.692C617.332 476.165 612.732 471.385 611.127 466.348C609.532 461.333 610.25 454.8 613.277 446.748C616.307 438.698 619.777 431.88 623.69 426.3L637.102 437.025C634.06 442.2 631.912 446.452 630.66 449.787C629.4 453.137 628.475 456.073 627.882 458.595L632.282 461.14L635.347 454.997C638.482 448.765 641.76 444.73 645.18 442.892C648.6 441.055 652.312 440.893 656.322 442.4C660.395 443.933 664.27 446.367 667.95 449.707C669.822 451.507 671.307 453.215 672.405 454.83C673.507 456.43 674.28 458.245 674.717 460.277C675.145 462.287 675.385 464.065 675.43 465.607C675.462 467.145 675.21 469.008 674.675 471.193C674.03 474.288 672.892 478.007 671.26 482.347C668.297 490.225 664.772 497.065 660.685 502.868V502.868ZM9.76248 356.325C9.76248 342.557 20.9225 331.398 34.6925 331.398C48.46 331.398 59.62 342.557 59.62 356.325C59.62 370.092 48.46 381.253 34.6925 381.253C20.925 381.253 9.76498 370.092 9.76248 356.325V356.325ZM644.792 356.325C644.792 342.557 655.952 331.398 669.72 331.398C683.487 331.398 694.647 342.557 694.65 356.325C694.65 370.092 683.49 381.253 669.72 381.253C655.952 381.253 644.792 370.092 644.792 356.325Z" fill="#EA3882"/>
</g>
</g>
</g>
<defs>
<clipPath id="clip0_326_4">
<rect width="700" height="700" fill="white"/>
</clipPath>
<clipPath id="clip1_326_4">
<rect width="700" height="700" fill="white"/>
</clipPath>
<clipPath id="clip2_326_4">
<rect width="700" height="700" fill="white"/>
</clipPath>
<clipPath id="clip3_326_4">
<rect width="395.422" height="395.422" fill="white" transform="translate(152.289 152.289)"/>
</clipPath>
<clipPath id="clip4_326_4">
<rect width="395.422" height="395.422" fill="white" transform="translate(152.289 152.289)"/>
</clipPath>
<clipPath id="clip5_326_4">
<rect width="395.422" height="395.422" fill="white" transform="translate(152.289 152.289)"/>
</clipPath>
<clipPath id="clip6_326_4">
<rect width="395.422" height="395.422" fill="white" transform="translate(152.289 152.289)"/>
</clipPath>
<clipPath id="clip7_326_4">
<rect width="395.422" height="395.422" fill="white" transform="translate(152.289 152.289)"/>
</clipPath>
<clipPath id="clip8_326_4">
<rect width="185.719" height="159.797" fill="white" transform="translate(257.141 270.102)"/>
</clipPath>
<clipPath id="clip9_326_4">
<rect width="185.719" height="159.797" fill="white" transform="translate(257.141 270.102)"/>
</clipPath>
</defs>
</svg>
