<svg xmlns="http://www.w3.org/2000/svg" xmlns:xlink="http://www.w3.org/1999/xlink" version="1.1" width="256" height="256" viewBox="0 0 256 256" xml:space="preserve">

<defs>
</defs>
<g style="stroke: none; stroke-width: 0; stroke-dasharray: none; stroke-linecap: butt; stroke-linejoin: miter; stroke-miterlimit: 10; fill: none; fill-rule: nonzero; opacity: 1;" transform="translate(1.4065934065934016 1.4065934065934016) scale(2.81 2.81)" >
	<path d="M 45.891 89.396 l 25.808 -50.364 c 0.379 -0.739 -0.158 -1.618 -0.989 -1.618 l -0.569 0 c -16.11 -5.09 -32.79 -5.314 -50.12 0 l -0.731 0 c -0.829 0 -1.366 0.876 -0.99 1.615 l 25.611 50.363 C 44.323 90.201 45.477 90.203 45.891 89.396 z" style="stroke: none; stroke-width: 1; stroke-dasharray: none; stroke-linecap: butt; stroke-linejoin: miter; stroke-miterlimit: 10; fill: rgb(255,222,85); fill-rule: nonzero; opacity: 1;" transform=" matrix(1 0 0 1 0 0) " stroke-linecap="round" />
	<path d="M 23.468 16.921 c 2.523 -2.523 5.704 -4.223 9.198 -4.915 c 0.413 -0.082 0.742 -0.392 0.848 -0.8 C 35.227 4.608 41.179 0 47.99 0 c 8.257 0 14.974 6.718 14.974 14.974 c 0 1.358 -0.197 2.739 -0.584 4.103 c -0.128 0.451 0.045 0.934 0.43 1.201 c 4.734 3.275 7.561 8.655 7.561 14.392 c 0 0.953 -0.077 1.905 -0.23 2.841 h -6.048 c -0.291 0 -0.569 0.116 -0.775 0.321 s -0.321 0.484 -0.321 0.775 v 4.893 c 0 2.405 -1.957 4.361 -4.361 4.361 c -2.074 0 -3.814 -1.455 -4.254 -3.398 v -5.855 c 0 -0.605 -0.49 -1.096 -1.096 -1.096 H 53.18 c -0.606 0 -1.096 0.491 -1.096 1.096 v 4.893 c 0 0.404 0.036 0.8 0.107 1.183 v 7.674 c 0 2.404 -1.957 4.361 -4.362 4.361 c -2.404 0 -4.36 -1.957 -4.36 -4.361 v -13.75 c 0 -0.291 -0.116 -0.569 -0.321 -0.775 s -0.484 -0.321 -0.775 -0.321 H 20.021 C 16.637 30.602 17.985 22.405 23.468 16.921 z" style="stroke: none; stroke-width: 1; stroke-dasharray: none; stroke-linecap: butt; stroke-linejoin: miter; stroke-miterlimit: 10; fill: rgb(247,89,89); fill-rule: nonzero; opacity: 1;" transform=" matrix(1 0 0 1 0 0) " stroke-linecap="round" />
	<circle cx="50.233000000000004" cy="8.823" r="2.343" style="stroke: none; stroke-width: 1; stroke-dasharray: none; stroke-linecap: butt; stroke-linejoin: miter; stroke-miterlimit: 10; fill: rgb(249,249,249); fill-rule: nonzero; opacity: 1;" transform="  matrix(1 0 0 1 0 0) "/>
	<circle cx="54.492999999999995" cy="20.183" r="2.343" style="stroke: none; stroke-width: 1; stroke-dasharray: none; stroke-linecap: butt; stroke-linejoin: miter; stroke-miterlimit: 10; fill: rgb(249,249,249); fill-rule: nonzero; opacity: 1;" transform="  matrix(1 0 0 1 0 0) "/>
	<circle cx="41.712999999999994" cy="15.923" r="2.343" style="stroke: none; stroke-width: 1; stroke-dasharray: none; stroke-linecap: butt; stroke-linejoin: miter; stroke-miterlimit: 10; fill: rgb(249,249,249); fill-rule: nonzero; opacity: 1;" transform="  matrix(1 0 0 1 0 0) "/>
	<circle cx="30.353" cy="20.183" r="2.343" style="stroke: none; stroke-width: 1; stroke-dasharray: none; stroke-linecap: butt; stroke-linejoin: miter; stroke-miterlimit: 10; fill: rgb(249,249,249); fill-rule: nonzero; opacity: 1;" transform="  matrix(1 0 0 1 0 0) "/>
	<circle cx="41.712999999999994" cy="28.703" r="2.343" style="stroke: none; stroke-width: 1; stroke-dasharray: none; stroke-linecap: butt; stroke-linejoin: miter; stroke-miterlimit: 10; fill: rgb(249,249,249); fill-rule: nonzero; opacity: 1;" transform="  matrix(1 0 0 1 0 0) "/>
	<circle cx="60.173" cy="28.703" r="2.343" style="stroke: none; stroke-width: 1; stroke-dasharray: none; stroke-linecap: butt; stroke-linejoin: miter; stroke-miterlimit: 10; fill: rgb(249,249,249); fill-rule: nonzero; opacity: 1;" transform="  matrix(1 0 0 1 0 0) "/>
	<circle cx="26.093" cy="30.123" r="2.343" style="stroke: none; stroke-width: 1; stroke-dasharray: none; stroke-linecap: butt; stroke-linejoin: miter; stroke-miterlimit: 10; fill: rgb(249,249,249); fill-rule: nonzero; opacity: 1;" transform="  matrix(1 0 0 1 0 0) "/>
</g>
</svg>