<svg xmlns="http://www.w3.org/2000/svg" version="1.1" xmlns:xlink="http://www.w3.org/1999/xlink" xmlns:svgjs="http://svgjs.dev/svgjs" width="1000" height="1000" viewBox="0 0 1000 1000"><rect width="1000" height="1000" fill="#fcf5df"></rect><g transform="matrix(0.7,0,0,0.7,150,150.00000000000006)"><svg viewBox="0 0 280 280" data-background-color="#fcf5df" preserveAspectRatio="xMidYMid meet" height="1000" width="1000" xmlns="http://www.w3.org/2000/svg" xmlns:xlink="http://www.w3.org/1999/xlink"><defs></defs><g id="tight-bounds" transform="matrix(1,0,0,1,0,-2.842170943040401e-14)"><svg viewBox="0 0 280 280" height="280" width="280"><g><svg viewBox="0 0 280 280" height="280" width="280"><g transform="matrix(1,0,0,1,60.91552984053068,60.91552984053068)"><svg viewBox="0 0 158.16894031893864 158.16894031893864" height="158.16894031893864" width="158.16894031893864"><g><svg viewBox="0 0 158.16894031893864 158.16894031893864" height="158.16894031893864" width="158.16894031893864"><g><svg viewBox="0 0 158.16894031893864 158.16894031893864" height="158.16894031893864" width="158.16894031893864"><g><svg viewBox="0 0 158.16894031893864 158.16894031893864" height="158.16894031893864" width="158.16894031893864"><g><svg viewBox="0 0 158.16894031893864 158.16894031893864" height="158.16894031893864" width="158.16894031893864"><g transform="matrix(1,0,0,1,41.94073576900428,47.12507329277657)"><svg viewBox="0 0 74.28746878093008 63.9187937333855" height="63.9187937333855" width="74.28746878093008"><g><svg xmlns="http://www.w3.org/2000/svg" xmlns:xlink="http://www.w3.org/1999/xlink" version="1.1" x="0" y="0" viewBox="5.000500202178955 11.281000137329102 90.0008773803711 77.43900299072266" enable-background="new 0 0 100 100" xml:space="preserve" height="63.9187937333855" width="74.28746878093008" class="icon-o-0" data-fill-palette-color="accent" id="o-0"><g fill="#ea3882" data-fill-palette-color="accent"><g fill="#ea3882" data-fill-palette-color="accent"><path d="M50 88.72c-1.247 0-2.494-0.477-3.446-1.428L12.118 52.855c-9.49-9.495-9.49-24.947 0-34.445 4.598-4.597 10.709-7.129 17.215-7.129s12.623 2.534 17.225 7.134L50 21.852l3.441-3.441c4.599-4.597 10.709-7.129 17.215-7.129 6.507 0 12.623 2.534 17.226 7.134 9.495 9.498 9.49 24.95 0 34.44L53.445 87.292C52.493 88.243 51.247 88.72 50 88.72L50 88.72zM29.333 21.029c-3.903 0-7.568 1.518-10.323 4.274-5.693 5.694-5.693 14.963 0 20.661L50 76.953l30.99-30.989c5.692-5.693 5.692-14.96 0-20.657-5.521-5.517-15.146-5.517-20.656-0.004L53.45 32.19c-1.904 1.904-4.988 1.901-6.892 0.002l-6.892-6.882C36.906 22.549 33.236 21.029 29.333 21.029L29.333 21.029z" fill="#ea3882" data-fill-palette-color="accent"></path></g><g fill="#ea3882" data-fill-palette-color="accent"><path d="M50.004 59.99L50.004 59.99c-1.294 0-2.532-0.514-3.446-1.428l-9.737-9.743c-1.904-1.904-1.904-4.988 0-6.892 1.903-1.903 4.988-1.903 6.891 0l6.292 6.297 16.03-16.035c1.904-1.904 4.988-1.904 6.893 0 1.904 1.901 1.904 4.988 0 6.892L53.45 58.562C52.536 59.477 51.299 59.99 50.004 59.99L50.004 59.99z" fill="#ea3882" data-fill-palette-color="accent"></path></g></g></svg></g></svg></g><path d="M12.839 48.069l2.93 1.961-1.5 3.452 4.576 2.998-1.764 4.058-12.311-8.144 3.612-8.314 2.925 2.613-1.63 3.751 1.661 1.077zM15.852 60.559l0.888 0.585-4.889 8.624zM12.054 58.043l0.884 0.595-4.89 8.624zM10.169 56.791l0.884 0.595-4.89 8.624zM8.27 55.545l0.888 0.586-4.89 8.623zM6.377 54.312l0.896 0.567-4.89 8.623zM13.948 59.299l0.879 0.582-4.884 8.637zM4.482 53.056l0.888 0.586-4.881 8.605zM12.647 37.13l4.143-5.604c1.576-2.132 3.319-2.493 5.228-1.082v0c0.785 0.581 1.446 1.25 1.981 2.008v0c1.025 1.432 1.416 2.784 1.176 4.058v0l4.799 1.637-2.885 3.902-4.118-1.703-0.562 0.761 3.035 3.167-2.63 3.559zM19.898 38.479l0.611-0.826c0.314-0.425 0.506-0.781 0.575-1.068 0.069-0.287-0.091-0.636-0.478-1.049-0.385-0.403-0.627-0.641-0.725-0.713v0c-0.251-0.185-0.48-0.207-0.686-0.065-0.212 0.138-0.479 0.426-0.802 0.863v0l-0.526 0.711zM21.611 47.577l0.734 0.77-6.702 7.304zM18.475 44.272l0.728 0.778-6.702 7.304zM15.338 41.003l0.733 0.77-6.69 7.288zM13.782 39.36l0.734 0.77-6.691 7.288zM20.039 45.921l0.726 0.764-6.7 7.319zM12.218 37.71l0.734 0.771-6.691 7.287zM16.902 42.653l0.733 0.77-6.69 7.288zM34.163 28.896l1.428-1.162c0.468-0.381 0.77-0.719 0.907-1.013 0.137-0.304 0.073-0.689-0.192-1.155v0l-2.978-5.368-1.444 1.175c-0.458 0.372-0.755 0.711-0.892 1.014-0.136 0.295-0.074 0.677 0.185 1.148v0zM29.966 17.806v0c1.526-1.241 2.856-1.83 3.992-1.767 1.131 0.068 2.201 0.723 3.211 1.965 1.006 1.236 1.864 2.689 2.575 4.357 0.715 1.674 0.953 3.229 0.714 4.666-0.24 1.446-1.173 2.83-2.799 4.152-1.631 1.327-3.012 1.956-4.142 1.888-1.136-0.064-2.207-0.714-3.213-1.95v0c-0.479-0.589-1.029-1.436-1.648-2.541-0.619-1.105-1.076-2.123-1.371-3.055-0.3-0.928-0.426-1.84-0.377-2.736v0c0.092-1.736 1.111-3.396 3.058-4.979zM27.889 28.584l0.234 0.4c0.055 0.121 0.14 0.275 0.256 0.46v0l-7.711 5.015zM21.877 36.347l7.165-5.829c0.19 0.309 0.377 0.576 0.562 0.802v0zM19.69 32.37l7.22-5.875 0.383 0.921zM23.526 37.891l6.889-5.605c0.321 0.298 0.569 0.516 0.743 0.655v0zM19.136 29.948l7.102-5.778c0.084 0.447 0.161 0.783 0.229 1.007v0zM26.673 38.229l5.706-4.642c0.379 0.155 0.74 0.233 1.082 0.234v0zM20.209 26.189l6.329-5.149c-0.167 0.503-0.273 0.922-0.317 1.255v0zM43.97 15.263v0l-9.397 3.159 9.108-4.18c0.056 0.318 0.153 0.658 0.289 1.021zM34.236 16.125l9.079-4.166 0.11 1.068zM35.692 20.371l8.774-4.027c0.197 0.365 0.398 0.657 0.604 0.876v0zM48.791 17.964v0l-11.615 4.177 9.107-4.179c0.669 0.238 1.505 0.238 2.508 0.002zM34.883 13.366l9.089-4.171c-0.228 0.366-0.406 0.798-0.535 1.297v0zM45.755 21.786l-8.006 2.555 7.905-3.628zM46.022 24.149l-7.696 2.401 7.581-3.48zM46.675 23.67l-0.416-4.029c1.331-0.223 2.486-0.559 3.466-1.009 0.98-0.45 1.76-0.856 2.339-1.219v0l-0.321-1.14-1.824 0.636c-1.397 0.484-2.485 0.618-3.264 0.401-0.775-0.226-1.364-0.777-1.765-1.653v0c-0.173-0.376-0.323-0.818-0.452-1.326v0c-0.505-1.947-0.482-3.458 0.069-4.531 0.546-1.071 1.709-2.016 3.491-2.833 1.781-0.818 3.437-1.365 4.967-1.642v0l0.452 3.889c-1.323 0.353-2.354 0.7-3.093 1.04-0.74 0.339-1.359 0.665-1.858 0.975v0l0.299 1.117 1.483-0.502c1.513-0.508 2.693-0.635 3.54-0.382 0.847 0.253 1.475 0.823 1.882 1.711v0c0.413 0.9 0.648 1.915 0.704 3.046v0c0.017 0.589-0.016 1.104-0.097 1.544-0.075 0.438-0.241 0.857-0.497 1.258-0.253 0.392-0.499 0.718-0.738 0.977-0.242 0.253-0.582 0.513-1.019 0.781v0c-0.602 0.396-1.384 0.814-2.345 1.255v0c-1.744 0.801-3.412 1.346-5.003 1.636zM72.395 0.884l-0.023 3.786-3.155 0.558 0.03 10.976-4.358 0.771-0.02-10.978-3.145 0.556 0.022-3.785zM64.174 15.965l0.002 1.064-9.9 0.687zM64.173 11.409l-0.007 1.066-9.89 0.685zM64.166 9.148l0.002 1.064-9.889 0.685zM64.167 6.875l0.002 1.064-9.89 0.685zM64.173 13.682l-0.01 1.056-9.888 0.695zM61.014 5.17l0.022 1.06-9.889 0.686zM61.015 2.897l-0.008 1.066-9.87 0.681zM78.107 14.1l-0.249 1.034-9.751-1.667zM78.615 11.879l-0.228 1.025-9.742-1.656zM78.553 9.633l0.137 1.058-9.772-1.668zM78.247 7.381l0.147 1.059-9.772-1.668zM68.041 2.26l9.615 0.608 0.137 1.059zM68.347 4.512l9.605 0.608 0.147 1.059zM77.371 0.608l0.147 1.059-9.752-1.667zM78.072 0.652l4.873 0.309-0.019 5.126 0.163 0.01 2.455-4.972 4.874 0.308-6.517 10.189-0.92 3.907-4.416-0.279 0.93-3.906zM102.308 4.145l6.745 2.408c1.048 0.374 1.745 0.832 2.091 1.373 0.343 0.533 0.378 1.179 0.107 1.939v0c-0.394 1.105-0.965 1.927-1.712 2.467-0.741 0.542-1.494 0.777-2.261 0.705v0l-0.064 0.118c1.22 0.717 1.565 1.819 1.034 3.307v0c-0.47 1.316-1.222 2.293-2.256 2.932-1.032 0.632-2.197 0.717-3.494 0.255v0l-7.492-2.675zM103.697 13.93v0l-1.638-0.584-1.19 2.092 1.619 0.578c0.364 0.13 0.694 0.082 0.991-0.143 0.288-0.221 0.513-0.559 0.675-1.013 0.162-0.454 0.01-0.763-0.457-0.93zM106.177 8.918v0l-1.312-0.469-1.099 1.898 1.294 0.462c0.671 0.239 1.175-0.114 1.512-1.059v0c0.146-0.409 0.015-0.686-0.395-0.832zM94.903 15.749l-0.525 0.926-8.932-4.301zM97.159 11.791l-0.535 0.922-8.932-4.301zM98.281 9.826l-0.534 0.922-8.932-4.301zM99.398 7.848l-0.525 0.925-8.932-4.301zM100.501 5.876l-0.505 0.932-8.932-4.3zM96.032 13.765l-0.521 0.916-8.945-4.295zM101.627 3.902l-0.524 0.925-8.913-4.294zM114.328 25.017l-3.772-2.315 9.788-11.05 3.763 2.309zM110.708 21.482l-0.705 0.798-7.854-6.049zM113.73 18.073l-0.713 0.792-7.854-6.048zM115.233 16.382l-0.712 0.792-7.855-6.049zM116.733 14.676l-0.704 0.798-7.854-6.049zM118.219 12.974l-0.686 0.808-7.855-6.048zM112.222 19.774l-0.699 0.788-7.869-6.045zM119.728 11.274l-0.704 0.797-7.837-6.037zM138.725 26.559l-3.021 2.281-2.36-2.168-8.702 6.691-3.259-2.993 8.709-6.685-2.352-2.16 3.02-2.282zM121.751 29.188l-0.844 0.648-6.559-7.448zM125.37 26.42l-0.851 0.641-6.551-7.44zM127.162 25.041l-0.844 0.648-6.551-7.44zM128.968 23.661l-0.844 0.648-6.551-7.44zM123.564 27.8l-0.845 0.634-6.558-7.433zM128.407 20.121l-0.829 0.662-6.551-7.441zM130.213 18.741l-0.851 0.641-6.536-7.426zM143.417 42.755l-3.142 1.375-2.456-3.681-1.628 0.731 3.004 4.503-3.459 1.524-5.46-8.183 13.516-5.936 5.392 8.082-3.769 1.06-2.643-3.961-1.805 0.813zM130.925 37.98l-0.974 0.429-4.599-8.782zM135.097 36.15l-0.979 0.421-4.599-8.782zM137.171 35.244l-0.979 0.42-4.6-8.781zM139.247 34.323l-0.973 0.429-4.6-8.782zM141.309 33.4l-0.962 0.446-4.599-8.782zM133.015 37.062l-0.965 0.424-4.613-8.785zM143.391 32.488l-0.973 0.429-4.588-8.765zM147.48 49.889v0l-2.491-9.595 3.529 9.378c-0.321 0.034-0.667 0.106-1.038 0.217zM147.303 40.118l3.519 9.35-1.074 0.035zM142.966 41.272l3.4 9.036c-0.378 0.171-0.683 0.351-0.916 0.541v0zM144.446 54.509v0l-3.351-11.881 3.53 9.379c-0.284 0.65-0.344 1.484-0.179 2.502zM150.011 40.958l3.522 9.36c-0.349-0.253-0.768-0.461-1.257-0.625v0zM140.847 51.211l-1.986-8.166 3.063 8.141zM138.472 51.311l-1.855-7.845 2.938 7.807zM138.903 51.997l4.049-0.132c0.129 1.343 0.383 2.519 0.762 3.528 0.38 1.009 0.73 1.816 1.052 2.42v0l1.159-0.241-0.506-1.864c-0.385-1.428-0.442-2.522-0.17-3.284 0.28-0.758 0.871-1.306 1.772-1.645v0c0.387-0.146 0.839-0.265 1.355-0.358v0c1.978-0.367 3.483-0.238 4.515 0.388 1.03 0.62 1.891 1.847 2.581 3.681 0.69 1.834 1.12 3.524 1.288 5.07v0l-3.911 0.178c-0.26-1.344-0.533-2.397-0.819-3.159-0.287-0.762-0.568-1.402-0.843-1.922v0l-1.134 0.22 0.396 1.515c0.4 1.545 0.444 2.731 0.132 3.558-0.312 0.827-0.925 1.413-1.839 1.758v0c-0.927 0.349-1.956 0.511-3.088 0.488v0c-0.589-0.025-1.1-0.093-1.534-0.206-0.431-0.106-0.838-0.301-1.219-0.584-0.373-0.28-0.681-0.548-0.923-0.805-0.235-0.259-0.471-0.616-0.707-1.071v0c-0.352-0.628-0.715-1.438-1.088-2.428v0c-0.676-1.796-1.103-3.498-1.28-5.105zM9.934 112.708l-1.149-2.883 3.575-0.757-0.862-2.164-3.576 0.757-1.148-2.882 10.135-2.102 1.145 2.873-3.578 0.748 0.862 2.164 3.583-0.738 1.149 2.882zM7.369 104.158l-0.729 0.148-1.881-6.697zM10.502 103.501l-0.735 0.161-1.871-6.701zM12.063 103.185l-0.739 0.152-1.871-6.701zM13.62 102.86l-0.739 0.152-1.871-6.701zM15.164 102.53l-0.726 0.158-1.881-6.698zM8.945 103.826l-0.739 0.152-1.871-6.701zM16.721 102.205l-0.729 0.148-1.874-6.678zM21.539 121.033l-2.229 0.887-1.637-2.623-1.166 0.475 2.014 3.228-2.46 0.996-3.657-5.86 9.601-3.869 3.609 5.782-2.657 0.663-1.772-2.84-1.289 0.529zM12.88 117.419l-0.691 0.276-3.041-6.257zM15.846 116.215l-0.694 0.29-3.033-6.262zM17.326 115.628l-0.7 0.281-3.032-6.262zM18.801 115.031l-0.7 0.281-3.033-6.262zM20.261 114.432l-0.686 0.284-3.041-6.257zM14.372 116.812l-0.7 0.281-3.033-6.262zM21.736 113.835l-0.692 0.276-3.03-6.239zM22.942 130.286l-1.627 0.606-2.173-2.437 10.465-3.581 3.189 3.576-7.127 7.324-2.18-2.445 1.16-1.13zM25.556 129.319l0.866 0.971 2.134-1.902-0.109-0.122zM19.584 127.774l-0.742 0.253-3.917-5.476zM21.215 127.219l-0.748 0.245-3.91-5.468zM22.818 126.662l-0.735 0.261-3.91-5.469zM24.434 126.12l-0.749 0.246-3.903-5.462zM26.037 125.563l-0.736 0.261-3.903-5.461zM29.248 124.472l-0.72 0.247-3.905-5.433zM27.632 125.013l-0.713 0.241-3.912-5.426zM24.623 119.286l3.905 5.433 0.72-0.247zM36.047 141.331l-1.984 1.764-4.86-3.858 7.747-6.865 2.422 1.922-5.755 5.108zM29.411 138.402l-0.559 0.491-4.964-4.874zM31.801 136.273l-0.557 0.506-4.957-4.882zM32.998 135.223l-0.565 0.5-4.957-4.883zM34.188 134.167l-0.566 0.499-4.957-4.882zM35.362 133.112l-0.551 0.498-4.963-4.874zM30.612 137.33l-0.565 0.499-4.957-4.882zM36.551 132.055l-0.559 0.492-4.947-4.862zM49.729 140.898l-1.739 1.994-1.938-1.16-5.033 5.832-2.662-1.594 5.033-5.832-1.912-1.144 1.739-1.995zM38.445 145.11l-0.49 0.561-5.559-4.182zM40.536 142.686l-0.495 0.57-5.554-4.191zM41.577 141.483l-0.487 0.575-5.562-4.196zM42.626 140.285l-0.495 0.57-5.554-4.191zM39.496 143.89l-0.495 0.569-5.554-4.191zM41.732 137.936l-0.481 0.566-5.559-4.182zM42.772 136.733l-0.489 0.561-5.542-4.172zM55.598 154.079l-2.904-1.093 1.848-3.152-2.18-0.82-1.849 3.152-2.904-1.092 5.273-8.907 2.895 1.088-1.858 3.149 2.181 0.82 1.867-3.145 2.904 1.092zM47.551 150.216l-0.381 0.639-6.218-3.121zM49.176 147.457l-0.376 0.652-6.214-3.13zM49.994 146.091l-0.385 0.648-6.214-3.13zM50.802 144.721l-0.385 0.649-6.213-3.13zM51.598 143.357l-0.372 0.643-6.217-3.121zM48.367 148.827l-0.385 0.648-6.214-3.13zM52.406 141.988l-0.381 0.639-6.198-3.114zM62.014 155.249l-0.262 0.697-6.662-1.966zM62.551 153.734l-0.244 0.71-6.651-1.974zM62.693 152.167l0.006 0.757-6.67-1.979zM62.665 150.57l0.017 0.758-6.671-1.979zM55.974 146.167l6.644 1.219 0.018 0.748zM56.004 147.755l6.644 1.219 0.006 0.756zM62.611 145.792l0.018 0.748-6.662-1.967zM63.101 145.881l3.362 0.617-0.436 3.561 0.121 0.022 2.116-3.253 3.373 0.619-5.381 6.553-0.971 2.645-3.052-0.559 0.971-2.646zM78.796 158.169l-3.102-0.044 1.944-10.167 3.092 0.044zM75.349 157.337l-0.143 0.73-6.907-0.829zM75.942 154.191l-0.132 0.741-6.907-0.84zM76.249 152.629l-0.142 0.741-6.907-0.841zM76.546 151.066l-0.143 0.741-6.906-0.84zM76.833 149.514l-0.133 0.73-6.907-0.83zM75.646 155.754l-0.143 0.741-6.907-0.84zM77.129 147.951l-0.142 0.73-6.887-0.829zM83.661 152.552l-0.01 0.34c-0.011 0.083-0.017 0.203-0.019 0.361v0l-6.456 0.074zM77.19 154.904l6.425-0.768c0.003 0.252 0.017 0.483 0.041 0.691v0zM77.384 151.725l6.475-0.774-0.112 0.69zM77.578 156.435l6.192-0.74c0.083 0.297 0.148 0.522 0.194 0.674v0zM77.957 150.089l6.384-0.763c-0.115 0.294-0.197 0.522-0.246 0.685v0zM79.322 157.825l5.122-0.612c0.171 0.232 0.357 0.412 0.556 0.538v0zM80.004 148.266l5.687-0.679c-0.287 0.226-0.509 0.43-0.665 0.612v0zM88.364 157.779v0c-1.367 0.163-2.375 0.014-3.025-0.448-0.649-0.455-1.039-1.235-1.171-2.339v0c-0.056-0.465-0.063-1.157-0.023-2.077v0c0.101-1.897 0.499-3.314 1.193-4.251 0.693-0.943 1.898-1.518 3.615-1.724v0c0.397-0.047 0.86-0.058 1.39-0.032 0.521 0.02 0.907 0.073 1.156 0.159v0l-0.612 2.593c-0.652-0.079-1.257-0.085-1.816-0.019-0.559 0.067-0.95 0.168-1.172 0.305-0.223 0.136-0.342 0.369-0.357 0.698v0l-0.24 4.342c0.4 0.034 0.806 0.027 1.217-0.022v0c0.875-0.105 1.658-0.328 2.348-0.67v0l0.062 2.748c-0.653 0.365-1.508 0.611-2.565 0.737zM101.414 148.341l0.24 2.387-2.973 0.852 0.136 1.252 3.658-1.048 0.28 2.639-6.641 1.903-1.076-10.295 6.552-1.878-0.094 2.736-3.218 0.922 0.154 1.385zM95.556 155.671l0.075 0.741-6.852 1.201zM95.216 152.488l0.087 0.748-6.855 1.191zM95.058 150.904l0.078 0.75-6.855 1.191zM94.891 149.322l0.077 0.75-6.855 1.192zM94.716 147.753l0.085 0.737-6.852 1.202zM95.383 154.07l0.078 0.75-6.855 1.192zM94.549 146.171l0.074 0.74-6.832 1.196zM108.524 146.502l0.11 0.321c0.02 0.082 0.057 0.196 0.111 0.344v0l-6.009 2.362zM103.309 150.997l5.733-2.998c0.092 0.235 0.187 0.446 0.285 0.632v0zM102.362 147.956l5.778-3.021 0.14 0.684zM104.215 152.291l5.526-2.89c0.183 0.248 0.323 0.436 0.42 0.562v0zM102.317 146.224l5.697-2.98c-0.003 0.316 0.001 0.558 0.013 0.728v0zM106.339 152.972l4.57-2.39c0.242 0.156 0.479 0.258 0.711 0.305v0zM103.583 143.793l5.076-2.653c-0.188 0.313-0.323 0.582-0.404 0.808v0zM114.775 149.72v0c-1.22 0.638-2.216 0.856-2.987 0.655-0.768-0.195-1.41-0.786-1.925-1.772v0c-0.217-0.415-0.47-1.059-0.758-1.934v0c-0.579-1.81-0.71-3.276-0.394-4.397 0.313-1.128 1.236-2.093 2.769-2.895v0c0.355-0.185 0.784-0.36 1.287-0.524 0.494-0.167 0.874-0.254 1.137-0.261v0l0.349 2.642c-0.637 0.157-1.205 0.366-1.704 0.627-0.499 0.261-0.828 0.494-0.989 0.7-0.16 0.206-0.189 0.466-0.086 0.78v0l1.318 4.144c0.386-0.11 0.763-0.261 1.129-0.453v0c0.781-0.409 1.434-0.895 1.958-1.46v0l1.033 2.548c-0.481 0.573-1.193 1.106-2.137 1.6zM116.801 136.365l3.903-2.952c1.482-1.121 2.724-1.019 3.727 0.306v0c0.413 0.546 0.725 1.127 0.935 1.742v0c0.404 1.174 0.397 2.161-0.019 2.961v0l2.91 2.06-2.718 2.055-2.43-1.964-0.535 0.405 1.415 2.731-2.475 1.872zM121.415 138.704l0.568-0.429c0.298-0.225 0.497-0.427 0.6-0.607 0.102-0.179 0.064-0.444-0.115-0.793-0.174-0.353-0.287-0.565-0.34-0.636v0c-0.131-0.173-0.282-0.233-0.455-0.179-0.172 0.054-0.41 0.195-0.712 0.424v0l-0.495 0.375zM120.758 145.171l0.336 0.664-5.96 3.589zM119.293 142.324l0.351 0.666-5.966 3.581zM117.833 139.5l0.351 0.666-5.957 3.574zM117.122 138.087l0.336 0.664-5.951 3.582zM120.019 143.74l0.343 0.672-5.966 3.58zM116.396 136.671l0.336 0.664-5.943 3.577zM118.559 140.915l0.343 0.672-5.949 3.568zM132.646 127.546l1.436 1.921-2.108 2.263 0.762 1.002 2.593-2.784 1.602 2.117-4.708 5.055-6.232-8.265 4.645-4.988 1.33 2.393-2.281 2.449 0.846 1.107zM131.407 136.847l0.446 0.596-5.251 4.563zM129.474 134.295l0.46 0.596-5.258 4.556zM128.521 133.019l0.454 0.603-5.259 4.556zM127.562 131.75l0.453 0.603-5.258 4.556zM126.603 130.496l0.453 0.588-5.251 4.564zM130.433 135.564l0.453 0.603-5.258 4.556zM125.644 129.227l0.446 0.596-5.237 4.548zM141.216 123.785l1.008 1.413-1.788 2.733-6.179-9.173 2.623-4.01 8.925 4.977-1.793 2.741-1.393-0.826zM139.602 121.513l0.713-1.089-2.392-1.565-0.089 0.136zM139.663 127.681l0.438 0.651-4.27 5.206zM138.703 126.25l0.432 0.66-4.264 5.197zM137.749 124.848l0.442 0.642-4.263 5.197zM136.805 123.428l0.432 0.659-4.258 5.189zM135.851 122.025l0.443 0.643-4.259 5.189zM133.961 119.209l0.426 0.631-4.23 5.183zM134.905 120.628l0.417 0.626-4.222 5.189zM130.157 125.023l4.23-5.183-0.426-0.631zM147.309 115.239l0.626 0.414-3.14 6.173zM145.96 114.322l0.629 0.436-3.143 6.15zM144.624 113.43l0.636 0.417-3.143 6.151zM143.294 112.52l0.629 0.436-3.136 6.132zM141.958 111.629l0.635 0.417-3.135 6.131zM140.638 110.722l0.622 0.423-3.126 6.135zM139.301 109.831l0.626 0.413-3.122 6.126zM145.069 109.441l4.241 2.751-1.153 3.023-8.675-5.86 1.444-3.782 4.953 1.574 0.04-0.104-4.089-3.837 1.44-3.773 9.095 4.757-1.161 3.041-4.372-2.41-0.04 0.105 3.89 3.674-0.842 2.205-4.742-1.44zM1.498 81.263c0-3.139 2.545-5.684 5.684-5.684 3.139 0 5.684 2.545 5.684 5.684 0 3.139-2.545 5.684-5.684 5.684-3.139 0-5.684-2.545-5.684-5.684zM146.312 81.263c0-3.139 2.545-5.684 5.684-5.684 3.139 0 5.684 2.545 5.684 5.684 0 3.139-2.545 5.684-5.684 5.684-3.139 0-5.684-2.545-5.684-5.684z" fill="#3a424c" data-fill-palette-color="primary"></path></svg></g></svg></g></svg></g><g></g></svg></g></svg></g><path d="M23.8 84.306l5.136 3.43-2.636 6.064 8.03 5.27-3.085 7.1-21.592-14.274 6.34-14.588 5.117 4.587-2.86 6.582 2.914 1.893zM29.09 106.222l1.553 1.027-8.576 15.133zM22.424 101.809l1.554 1.027-8.577 15.132zM19.105 99.608l1.55 1.037-8.572 15.122zM15.796 97.412l1.55 1.036-8.573 15.123zM12.457 95.257l1.57 0.99-8.577 15.132zM25.734 104.006l1.554 1.027-8.577 15.132zM9.147 93.06l1.554 1.027-8.561 15.096zM23.47 65.123l7.275-9.839c2.764-3.739 5.819-4.372 9.164-1.899v0c1.378 1.019 2.537 2.197 3.478 3.536v0c1.794 2.513 2.477 4.878 2.05 7.094v0l8.424 2.882-5.069 6.857-7.218-3.005-0.995 1.345 5.324 5.566-4.602 6.225zM36.183 67.478l1.067-1.443c0.551-0.746 0.888-1.37 1.009-1.874 0.112-0.502-0.164-1.112-0.829-1.828-0.674-0.716-1.098-1.138-1.271-1.266v0c-0.438-0.324-0.842-0.359-1.212-0.106-0.372 0.243-0.842 0.748-1.409 1.515v0l-0.923 1.248zM39.19 83.452l1.283 1.35-11.758 12.817zM33.687 77.653l1.283 1.35-11.758 12.818zM28.192 71.911l1.277 1.358-11.728 12.777zM25.447 69.029l1.283 1.35-11.734 12.785zM36.418 80.538l1.283 1.35-11.758 12.817zM22.715 66.145l1.284 1.35-11.734 12.785zM30.923 74.795l1.278 1.359-11.728 12.776zM61.207 50.686l2.502-2.036c0.824-0.67 1.353-1.27 1.589-1.8 0.24-0.525 0.13-1.197-0.33-2.018v0l-5.237-9.409-2.534 2.061c-0.798 0.649-1.314 1.238-1.55 1.768-0.24 0.525-0.13 1.197 0.33 2.019v0zM53.843 31.221v0c2.679-2.18 5.011-3.211 6.996-3.093 1.994 0.119 3.875 1.265 5.643 3.439 1.764 2.168 3.269 4.721 4.515 7.658 1.247 2.927 1.664 5.655 1.251 8.182-0.418 2.532-2.055 4.959-4.911 7.283-2.856 2.324-5.282 3.426-7.276 3.308-1.984-0.118-3.861-1.264-5.629-3.438v0c-0.84-1.032-1.805-2.517-2.896-4.453-1.085-1.941-1.886-3.724-2.402-5.348-0.52-1.63-0.738-3.233-0.652-4.81v0c0.154-3.036 1.941-5.946 5.361-8.728zM50.187 50.126l0.422 0.71c0.098 0.206 0.245 0.472 0.441 0.797v0l-13.521 8.792zM39.659 63.746l12.557-10.216c0.332 0.536 0.661 1.004 0.988 1.406v0zM35.827 56.768l12.651-10.293 0.68 1.604zM42.542 66.443l12.08-9.828c0.572 0.522 1.008 0.904 1.308 1.145v0zM34.838 52.518l12.463-10.14c0.152 0.794 0.285 1.388 0.397 1.782v0zM48.076 67.048l10-8.136c0.665 0.264 1.297 0.396 1.894 0.395v0zM36.733 45.935l11.11-9.04c-0.305 0.881-0.5 1.616-0.585 2.204v0zM78.401 26.768v0l-16.486 5.545 15.978-7.33c0.105 0.551 0.274 1.146 0.508 1.785zM61.325 28.27l15.94-7.313 0.19 1.887zM63.885 35.713l15.382-7.058c0.357 0.649 0.71 1.16 1.058 1.533v0zM86.862 31.503v0l-20.38 7.332 15.978-7.331c1.18 0.412 2.647 0.412 4.402-0.001zM62.47 23.442l15.94-7.314c-0.397 0.633-0.708 1.39-0.933 2.269v0zM81.541 38.203l-14.06 4.477 13.87-6.364zM82.002 42.35l-13.501 4.22 13.311-6.108zM83.144 41.504l-0.724-7.065c2.331-0.382 4.358-0.968 6.08-1.758 1.716-0.787 3.084-1.504 4.104-2.15v0l-0.56-1.994-3.213 1.119c-2.449 0.85-4.354 1.081-5.715 0.693-1.364-0.394-2.398-1.358-3.101-2.891v0c-0.305-0.666-0.568-1.44-0.788-2.322v0c-0.884-3.424-0.844-6.078 0.118-7.962 0.959-1.874 3.002-3.529 6.129-4.963 3.127-1.435 6.032-2.394 8.715-2.879v0l0.791 6.824c-2.321 0.614-4.129 1.218-5.423 1.811-1.301 0.597-2.391 1.171-3.269 1.722v0l0.534 1.962 2.6-0.883c2.646-0.889 4.713-1.113 6.202-0.671 1.489 0.441 2.59 1.44 3.305 2.997v0c0.726 1.582 1.141 3.365 1.246 5.35v0c0.025 1.038-0.033 1.941-0.177 2.709-0.137 0.765-0.429 1.498-0.876 2.199-0.444 0.692-0.877 1.264-1.298 1.716-0.424 0.446-1.02 0.904-1.787 1.374v0c-1.055 0.698-2.425 1.434-4.111 2.208v0c-3.06 1.404-5.987 2.355-8.782 2.854zM128.262 1.551l-0.036 6.629-5.538 0.98 0.048 19.256-7.633 1.35-0.048-19.256-5.499 0.972 0.026-6.627zM113.84 28.003l0.002 1.863-17.352 1.206zM113.838 20.009l-0.008 1.865-17.341 1.204zM113.84 16.027l-0.008 1.864-17.351 1.207zM113.834 12.057l0.002 1.862-17.352 1.206zM113.835 23.981l0.002 1.863-17.352 1.206zM108.298 9.054l0.031 1.857-17.342 1.205zM108.291 5.083l0.002 1.863-17.312 1.199zM138.278 24.73l-0.437 1.81-17.107-2.92zM139.182 20.818l-0.397 1.813-17.106-2.92zM139.067 16.892l0.246 1.854-17.146-2.923zM138.54 12.93l0.246 1.853-17.146-2.922zM120.636 3.95l16.849 1.065 0.247 1.854zM121.153 7.911l16.859 1.067 0.247 1.853zM136.998 1.066l0.246 1.854-17.096-2.92zM138.215 1.143l8.551 0.541-0.034 8.987 0.282 0.017 4.309-8.716 8.55 0.541-11.422 17.871-1.625 6.846-7.736-0.489 1.625-6.846zM180.728 7.269l11.828 4.223c1.842 0.657 3.066 1.455 3.673 2.392 0.601 0.935 0.663 2.07 0.186 3.406v0c-0.694 1.943-1.691 3.388-2.993 4.336-1.31 0.952-2.634 1.361-3.969 1.227v0l-0.123 0.223c2.15 1.253 2.758 3.186 1.825 5.8v0c-0.822 2.304-2.139 4.013-3.95 5.129-1.811 1.116-3.859 1.266-6.143 0.45v0l-13.129-4.686zM183.177 24.422v0l-2.886-1.03-2.083 3.677 2.839 1.013c0.639 0.228 1.218 0.146 1.736-0.247 0.512-0.395 0.909-0.988 1.192-1.779 0.285-0.797 0.019-1.342-0.798-1.634zM187.527 15.626v0l-2.307-0.824-1.923 3.349 2.259 0.806c1.177 0.42 2.063-0.202 2.657-1.866v0c0.258-0.721 0.029-1.21-0.686-1.465zM167.736 27.622l-0.92 1.619-15.673-7.543zM171.693 20.676l-0.921 1.619-15.673-7.543zM173.666 17.217l-0.93 1.616-15.663-7.54zM175.636 13.767l-0.93 1.616-15.663-7.539zM177.562 10.292l-0.883 1.632-15.673-7.543zM169.723 24.125l-0.921 1.619-15.673-7.543zM179.532 6.842l-0.921 1.619-15.635-7.529zM201.806 43.866l-6.598-4.048 17.155-19.382 6.598 4.049zM195.457 37.676l-1.234 1.395-13.783-10.609zM200.76 31.694l-1.235 1.395-13.783-10.609zM203.403 28.716l-1.243 1.39-13.774-10.605zM206.041 25.746l-1.243 1.39-13.774-10.604zM208.642 22.742l-1.2 1.416-13.783-10.61zM198.122 34.664l-1.235 1.395-13.783-10.61zM211.28 19.772l-1.234 1.395-13.749-10.589zM244.601 46.581l-5.288 3.998-4.142-3.805-15.268 11.735-5.708-5.244 15.267-11.734-4.112-3.778 5.28-4.005zM214.827 51.191l-1.478 1.133-11.498-13.052zM221.177 46.334l-1.486 1.126-11.49-13.045zM224.342 43.917l-1.486 1.126-11.498-13.052zM227.492 41.5l-1.478 1.133-11.498-13.052zM218.019 48.744l-1.478 1.133-11.498-13.052zM226.515 35.278l-1.457 1.154-11.49-13.045zM229.665 32.862l-1.479 1.133-11.467-13.025zM252.838 74.984l-5.51 2.403-4.301-6.448-2.874 1.287 5.275 7.907-6.063 2.664-9.57-14.347 23.694-10.416 9.46 14.18-6.6 1.858-4.643-6.96-3.17 1.424zM230.918 66.61l-1.705 0.75-8.073-15.407zM238.238 63.398l-1.705 0.75-8.073-15.407zM241.886 61.801l-1.711 0.741-8.067-15.398zM245.526 60.209l-1.711 0.742-8.067-15.399zM249.145 58.57l-1.682 0.783-8.073-15.407zM234.599 64.99l-1.705 0.75-8.073-15.407zM252.785 56.978l-1.705 0.75-8.051-15.374zM259.961 87.496v0l-4.374-16.835 6.19 16.453c-0.557 0.066-1.162 0.193-1.816 0.382zM259.662 70.356l6.176 16.415-1.896 0.056zM252.058 72.387l5.959 15.84c-0.673 0.311-1.207 0.627-1.603 0.948v0zM254.643 95.603v0l-5.882-20.845 6.19 16.453c-0.494 1.148-0.597 2.612-0.308 4.392zM264.398 71.837l6.175 16.415c-0.604-0.441-1.336-0.804-2.197-1.09v0zM248.334 89.824l-3.478-14.339 5.373 14.283zM244.165 89.993l-3.262-13.764 5.157 13.707zM244.928 91.192l7.098-0.226c0.217 2.352 0.66 4.415 1.327 6.188 0.665 1.767 1.283 3.182 1.856 4.245v0l2.028-0.418-0.89-3.284c-0.676-2.503-0.772-4.419-0.29-5.749 0.489-1.333 1.523-2.296 3.102-2.891v0c0.686-0.258 1.476-0.466 2.372-0.623v0c3.478-0.641 6.122-0.415 7.933 0.677 1.802 1.088 3.309 3.242 4.521 6.463 1.212 3.22 1.965 6.186 2.259 8.896v0l-6.862 0.309c-0.449-2.358-0.925-4.204-1.426-5.537-0.504-1.34-1-2.467-1.488-3.382v0l-1.995 0.395 0.698 2.656c0.701 2.702 0.779 4.779 0.234 6.234-0.544 1.454-1.618 2.483-3.222 3.086v0c-1.629 0.613-3.437 0.902-5.424 0.867v0c-1.037-0.048-1.934-0.17-2.69-0.367-0.754-0.19-1.464-0.533-2.132-1.028-0.659-0.492-1.199-0.963-1.62-1.415-0.415-0.454-0.83-1.081-1.246-1.88v0c-0.623-1.101-1.26-2.52-1.913-4.255v0c-1.185-3.151-1.929-6.138-2.23-8.961zM32.52 196.965l-6.012 1.415-2.636-6.064-9.331 2.275-3.085-7.1 25.166-6.047 6.34 14.588-6.845 0.612-2.86-6.582-3.372 0.839zM12.887 185.879l-1.811 0.436-5.211-16.595zM20.662 184.017l-1.811 0.436-5.212-16.595zM24.535 183.092l-1.815 0.427-5.208-16.586zM28.399 182.171l-1.815 0.427-5.208-16.586zM32.252 181.2l-1.795 0.473-5.212-16.595zM16.798 184.938l-1.811 0.436-5.212-16.595zM36.116 180.279l-1.811 0.436-5.196-16.558zM47.115 202.455l7.275 9.839c2.764 3.739 2.474 6.845-0.87 9.318v0c-1.378 1.019-2.845 1.781-4.4 2.289v0c-2.929 0.979-5.39 0.939-7.384-0.12v0l-5.225 7.21-5.069-6.857 4.988-6.02-0.994-1.345-6.882 3.459-4.603-6.225zM41.138 213.919l1.067 1.443c0.551 0.746 1.05 1.25 1.495 1.514 0.447 0.254 1.111 0.169 1.992-0.256 0.882-0.435 1.409-0.716 1.582-0.844v0c0.438-0.324 0.59-0.7 0.457-1.128-0.123-0.427-0.469-1.024-1.036-1.791v0l-0.922-1.249zM24.984 212.111l-1.666 0.831-8.808-14.998zM32.141 208.55l-1.667 0.831-8.807-14.999zM39.242 204.98l-1.673 0.823-8.778-14.959zM42.802 203.2l-1.667 0.831-8.784-14.966zM28.583 210.315l-1.667 0.832-8.808-14.999zM46.36 201.434l-1.666 0.831-8.784-14.966zM35.684 206.745l-1.673 0.823-8.778-14.958zM55.618 241.245l2.502 2.035c0.824 0.67 1.519 1.067 2.085 1.19 0.563 0.128 1.199-0.116 1.909-0.733v0l8.147-7.042-2.534-2.061c-0.798-0.649-1.48-1.035-2.046-1.159-0.563-0.128-1.199 0.116-1.909 0.734v0zM73.177 230.075v0c2.679 2.18 4.163 4.253 4.451 6.221 0.289 1.976-0.451 4.051-2.219 6.225-1.764 2.168-3.957 4.161-6.579 5.978-2.612 1.816-5.198 2.779-7.756 2.889-2.564 0.106-5.274-1.003-8.131-3.327-2.856-2.324-4.429-4.474-4.718-6.45-0.288-1.967 0.452-4.037 2.221-6.211v0c0.84-1.032 2.097-2.279 3.771-3.741 1.68-1.458 3.262-2.604 4.748-3.44 1.49-0.841 3.016-1.38 4.577-1.617v0c3.004-0.466 6.216 0.691 9.635 3.473zM53.924 230.342l-0.609 0.557c-0.182 0.138-0.412 0.336-0.692 0.594v0l-11.358-11.45zM38.447 222.805l12.556 10.216c-0.457 0.434-0.849 0.851-1.175 1.253v0zM44.5 217.633l12.65 10.292-1.431 0.993zM36.393 226.175l12.08 9.829c-0.395 0.666-0.68 1.171-0.855 1.513v0zM48.46 215.8l12.463 10.14c-0.747 0.311-1.301 0.561-1.664 0.751v0zM36.926 231.716l10.001 8.136c-0.123 0.705-0.124 1.35-0.002 1.935v0zM55.291 216.316l11.11 9.039c-0.925-0.12-1.684-0.161-2.277-0.124v0zM82.602 249.137v0l-14.956-8.88 15.977 7.331c-0.349 0.439-0.69 0.955-1.021 1.549zM70.326 237.172l15.94 7.314-1.307 1.375zM66.354 243.967l15.382 7.058c-0.259 0.694-0.417 1.295-0.472 1.801v0zM84.53 258.639v0l-18.849-10.667 15.977 7.331c0.457 1.163 1.414 2.275 2.872 3.336zM74.732 234.891l15.941 7.314c-0.739 0.112-1.515 0.369-2.328 0.773v0zM75.981 258.975l-12.563-7.738 13.87 6.364zM73.138 262.029l-12.004-7.482 13.311 6.108zM74.524 262.343l4.884-5.156c1.81 1.518 3.576 2.672 5.298 3.462 1.716 0.787 3.152 1.357 4.306 1.71v0l1.146-1.725-2.943-1.706c-2.242-1.302-3.659-2.596-4.253-3.881-0.591-1.291-0.534-2.703 0.17-4.236v0c0.305-0.666 0.721-1.37 1.246-2.112v0c2.02-2.903 4.057-4.604 6.112-5.103 2.046-0.495 4.633-0.026 7.759 1.409 3.127 1.435 5.749 3.011 7.867 4.729v0l-4.657 5.05c-1.979-1.359-3.616-2.335-4.91-2.93-1.301-0.597-2.447-1.049-3.438-1.355v0l-1.138 1.685 2.365 1.395c2.399 1.426 3.917 2.847 4.553 4.263 0.637 1.416 0.598 2.903-0.116 4.46v0c-0.726 1.582-1.807 3.06-3.243 4.434v0c-0.77 0.696-1.493 1.241-2.169 1.634-0.669 0.395-1.415 0.652-2.239 0.769-0.814 0.114-1.53 0.159-2.147 0.135-0.614-0.031-1.35-0.183-2.207-0.458v0c-1.217-0.344-2.669-0.903-4.354-1.676v0c-3.06-1.404-5.69-3.003-7.892-4.797zM133.383 254.553l-2.307 6.215-5.538-0.98-6.56 18.104-7.633-1.35 6.56-18.104-5.499-0.973 2.297-6.216zM110.763 274.453l-0.637 1.75-16.713-4.819zM113.504 266.944l-0.647 1.748-16.703-4.817zM114.871 263.204l-0.647 1.748-16.712-4.819zM116.228 259.472l-0.638 1.75-16.712-4.819zM112.138 270.674l-0.637 1.75-16.713-4.819zM112.057 254.752l-0.607 1.756-16.703-4.817zM113.413 251.021l-0.637 1.75-16.673-4.812zM139.394 277.961l-0.207 1.852-17.337-0.742zM139.797 273.967l-0.165 1.848-17.338-0.741zM139.188 270.086l0.478 1.808-17.378-0.738zM138.166 266.222l0.478 1.808-17.378-0.739zM119.273 259.57l16.85-1.066 0.478 1.808zM120.285 263.435l16.86-1.067 0.478 1.808zM135.141 254.647l0.478 1.808-17.327-0.742zM136.359 254.57l8.55-0.54 1.1 8.919 0.281-0.018 3.176-9.19 8.551-0.541-9.079 19.168-0.75 6.996-7.735 0.49 0.749-6.996zM170.841 250.097l11.828-4.222c1.842-0.657 3.294-0.816 4.358-0.475 1.057 0.343 1.824 1.182 2.301 2.518v0c0.694 1.943 0.837 3.693 0.43 5.251-0.411 1.567-1.176 2.721-2.296 3.463v0l0.047 0.251c2.457-0.392 4.152 0.719 5.086 3.333v0c0.822 2.304 0.886 4.461 0.191 6.471-0.695 2.01-2.185 3.424-4.47 4.239v0l-13.128 4.687zM183.6 261.821v0l-2.886 1.031 0.716 4.164 2.838-1.013c0.639-0.228 1.035-0.658 1.188-1.291 0.146-0.63 0.078-1.341-0.205-2.132-0.285-0.797-0.835-1.05-1.651-0.759zM181.395 252.259v0l-2.307 0.823 0.633 3.81 2.259-0.807c1.177-0.42 1.469-1.463 0.874-3.127v0c-0.258-0.721-0.744-0.955-1.459-0.699zM173.676 274.076l0.313 1.836-16.907 4.088zM172.339 266.195l0.313 1.836-16.907 4.087zM171.676 262.268l0.303 1.84-16.897 4.084zM171.016 258.351l0.303 1.84-16.897 4.084zM170.305 254.441l0.351 1.823-16.906 4.088zM172.999 270.112l0.313 1.836-16.907 4.087zM169.645 250.524l0.313 1.836-16.868 4.075zM213.09 259.585l-6.598 4.049-9.508-24.073 6.598-4.049zM204.696 262.441l0.685 1.733-15.702 7.482zM201.765 255.004l0.684 1.733-15.702 7.482zM200.307 251.298l0.676 1.738-15.694 7.477zM198.854 247.601l0.676 1.738-15.693 7.477zM197.354 243.922l0.719 1.711-15.703 7.482zM203.217 258.701l0.685 1.733-15.702 7.482zM195.901 240.225l0.685 1.732-15.668 7.461zM224.708 216.823l3.536 5.608-4.142 3.804 10.398 16.208-5.709 5.243-10.398-16.207-4.112 3.777-3.543-5.6zM226.778 246.88l1.003 1.569-13.979 10.35zM222.477 240.142l0.996 1.576-13.972 10.343zM220.337 236.783l0.996 1.576-13.98 10.35zM218.196 233.44l1.003 1.569-13.979 10.349zM224.61 243.492l1.004 1.57-13.98 10.349zM211.914 233.886l1.025 1.549-13.972 10.343zM209.773 230.542l1.003 1.569-13.95 10.323zM244.928 204.799l4.334 4.164-4.301 6.448 2.292 2.159 5.274-7.907 4.788 4.575-9.571 14.347-18.717-17.878 9.46-14.179 4.25 5.38-4.643 6.959 2.532 2.38zM245.614 228.254l1.347 1.287-11.125 13.37zM239.837 222.729l1.347 1.286-11.125 13.371zM236.961 219.974l1.342 1.295-11.12 13.362zM234.094 217.225l1.341 1.295-11.119 13.362zM231.19 214.512l1.37 1.253-11.126 13.371zM242.704 225.477l1.348 1.287-11.126 13.37zM228.323 211.763l1.347 1.287-11.103 13.337zM250.533 194.018v0l-7.808 15.542 6.19-16.453c0.462 0.317 1.001 0.621 1.618 0.911zM239.46 207.104l6.176-16.415 1.463 1.207zM246.517 210.589l5.959-15.84c0.711 0.21 1.321 0.325 1.831 0.344v0zM259.876 191.426v0l-9.316 19.553 6.19-16.453c1.128-0.538 2.17-1.571 3.126-3.1zM236.875 202.869l6.176-16.416c0.164 0.729 0.475 1.485 0.934 2.269v0zM260.812 199.931l-6.837 13.076 5.374-14.283zM264.058 202.552l-6.62 12.501 5.157-13.708zM264.274 201.147l-5.487-4.509c1.387-1.912 2.414-3.755 3.082-5.528 0.665-1.767 1.133-3.239 1.402-4.415v0l-1.801-1.023-1.495 3.056c-1.141 2.328-2.332 3.832-3.572 4.515-1.247 0.68-2.659 0.723-4.238 0.129v0c-0.686-0.258-1.417-0.623-2.194-1.095v0c-3.038-1.811-4.878-3.723-5.52-5.738-0.638-2.006-0.351-4.619 0.86-7.84 1.212-3.22 2.6-5.947 4.165-8.179v0l5.365 4.29c-1.217 2.07-2.076 3.771-2.577 5.105-0.504 1.34-0.874 2.514-1.111 3.523v0l1.76 1.018 1.226-2.457c1.254-2.493 2.565-4.107 3.933-4.842 1.368-0.735 2.853-0.8 4.457-0.197v0c1.629 0.613 3.179 1.587 4.651 2.923v0c0.749 0.72 1.343 1.403 1.782 2.049 0.441 0.64 0.75 1.366 0.925 2.179 0.171 0.804 0.267 1.515 0.285 2.132 0.013 0.615-0.088 1.36-0.302 2.234v0c-0.258 1.238-0.713 2.726-1.366 4.462v0c-1.185 3.151-2.595 5.887-4.23 8.208zM3.905 142.53c0-5.507 4.464-9.971 9.972-9.971 5.507 0 9.971 4.464 9.971 9.971 0 5.507-4.464 9.971-9.971 9.971-5.507 0-9.971-4.464-9.972-9.971zM257.917 142.53c0-5.507 4.464-9.971 9.971-9.971 5.507 0 9.971 4.464 9.972 9.971 0 5.507-4.464 9.971-9.972 9.971-5.507 0-9.971-4.464-9.971-9.971z" fill="#ea3882" data-fill-palette-color="accent"></path></svg></g></svg><rect width="280" height="280" fill="none" stroke="none" visibility="hidden"></rect></g></svg></g></svg>